# Blender v2.91.0 OBJ File: 'simpleWall.blend'
# www.blender.org
mtllib simplePotHedge.mtl
o Cube_Cube.010
v -0.250000 0.025705 -0.194486
v -0.229037 0.275705 -0.204968
v -0.250000 0.025705 -0.444486
v -0.229037 0.275705 -0.434005
v 0.250000 0.025705 -0.194486
v 0.229037 0.275705 -0.204968
v 0.250000 0.025705 -0.444486
v 0.229037 0.275705 -0.434005
v -0.250000 0.275705 -0.194486
v -0.250000 0.275705 -0.444486
v 0.250000 0.275705 -0.444486
v 0.250000 0.275705 -0.194486
v -0.022442 0.253874 -0.308265
v -0.022442 0.253874 -0.330707
v 0.022442 0.253874 -0.330707
v 0.022442 0.253874 -0.308265
v -0.229037 0.253874 -0.204968
v -0.229037 0.253874 -0.434005
v 0.229037 0.253874 -0.434005
v 0.229037 0.253874 -0.204968
v -0.220616 0.253874 -0.209178
v -0.220616 0.253874 -0.429794
v 0.220616 0.253874 -0.429794
v 0.220616 0.253874 -0.209178
v -0.017812 0.253874 -0.310580
v -0.017812 0.253874 -0.328392
v 0.017812 0.253874 -0.328392
v 0.017812 0.253874 -0.310580
v -0.022442 0.253874 -0.308265
v -0.022442 0.253874 -0.330707
v 0.022442 0.253874 -0.330707
v 0.022442 0.253874 -0.308265
v -0.017812 0.258060 -0.310580
v -0.017812 0.258060 -0.328392
v 0.017812 0.258060 -0.328392
v 0.017812 0.258060 -0.310580
v -0.017812 0.273177 -0.310580
v -0.017812 0.273177 -0.328392
v 0.017812 0.273177 -0.328392
v 0.017812 0.273177 -0.310580
v -0.203551 0.280208 -0.238339
v -0.203551 0.280208 -0.400634
v 0.203551 0.280208 -0.400634
v 0.203551 0.280208 -0.238339
v -0.203551 0.391272 -0.238339
v -0.203551 0.391272 -0.400634
v 0.203551 0.391272 -0.400634
v 0.203551 0.391272 -0.238339
vt 0.625000 0.000000
vt 0.375000 0.250000
vt 0.375000 0.000000
vt 0.625000 0.250000
vt 0.375000 0.500000
vt 0.625000 0.500000
vt 0.375000 0.750000
vt 0.625000 0.750000
vt 0.375000 1.000000
vt 0.125000 0.750000
vt 0.125000 0.500000
vt 0.635482 0.739518
vt 0.864518 0.739518
vt 0.864518 0.739518
vt 0.864518 0.510482
vt 0.875000 0.750000
vt 0.635482 0.510482
vt 0.875000 0.500000
vt 0.635482 0.510482
vt 0.635482 0.739518
vt 0.864518 0.510482
vt 0.860308 0.514692
vt 0.860308 0.735308
vt 0.639692 0.514692
vt 0.639692 0.735308
vt 0.625000 1.000000
vt 0.761221 0.636221
vt 0.738779 0.636221
vt 0.761221 0.636221
vt 0.761221 0.613779
vt 0.738779 0.613779
vt 0.738779 0.636221
vt 0.761221 0.613779
vt 0.738779 0.613779
vt 0.758906 0.616094
vt 0.758906 0.633906
vt 0.741094 0.616094
vt 0.741094 0.633906
vt 0.758906 0.616094
vt 0.741094 0.633906
vt 0.758906 0.633906
vt 0.758906 0.633906
vt 0.741094 0.616094
vt 0.741094 0.633906
vt 0.741094 0.616094
vt 0.741094 0.633906
vt 0.741094 0.616094
vt 0.758906 0.616094
vt 0.758906 0.633906
vt 0.758906 0.633906
vt 0.758906 0.616094
vt 0.758906 0.616094
vt 0.741094 0.633906
vt 0.741094 0.616094
vn -1.0000 0.0000 0.0000
vn 0.0000 0.0000 -1.0000
vn 1.0000 0.0000 0.0000
vn 0.0000 0.0000 1.0000
vn 0.0000 -1.0000 0.0000
vn 0.0000 1.0000 0.0000
vn 0.0378 -0.9993 0.0000
vn -0.0378 -0.9993 0.0000
vn 0.0000 -0.9953 0.0969
vn 0.0000 -0.9953 -0.0969
usemtl Concrete
s off
f 9/1/1 3/2/1 1/3/1
f 10/4/2 7/5/2 3/2/2
f 11/6/3 5/7/3 7/5/3
f 12/8/4 1/9/4 5/7/4
f 7/5/5 1/10/5 3/11/5
f 6/12/2 17/13/2 2/14/2
f 4/15/6 9/16/6 2/14/6
f 8/17/6 10/18/6 4/15/6
f 6/12/6 11/6/6 8/17/6
f 2/14/6 12/8/6 6/12/6
f 4/15/4 19/19/4 8/17/4
f 8/17/1 20/20/1 6/12/1
f 2/14/3 18/21/3 4/15/3
f 22/22/6 17/13/6 21/23/6
f 23/24/6 18/21/6 22/22/6
f 24/25/6 19/19/6 23/24/6
f 21/23/6 20/20/6 24/25/6
f 9/1/1 10/4/1 3/2/1
f 10/4/2 11/6/2 7/5/2
f 11/6/3 12/8/3 5/7/3
f 12/8/4 9/26/4 1/9/4
f 7/5/5 5/7/5 1/10/5
f 6/12/2 20/20/2 17/13/2
f 4/15/6 10/18/6 9/16/6
f 8/17/6 11/6/6 10/18/6
f 6/12/6 12/8/6 11/6/6
f 2/14/6 9/16/6 12/8/6
f 4/15/4 18/21/4 19/19/4
f 8/17/1 19/19/1 20/20/1
f 2/14/3 17/13/3 18/21/3
f 22/22/6 18/21/6 17/13/6
f 23/24/6 19/19/6 18/21/6
f 24/25/6 20/20/6 19/19/6
f 21/23/6 17/13/6 20/20/6
usemtl Soil
f 13/27/4 32/28/4 29/29/4
f 14/30/6 21/23/6 13/27/6
f 15/31/6 22/22/6 14/30/6
f 16/32/6 23/24/6 15/31/6
f 13/27/6 24/25/6 16/32/6
f 15/31/4 30/33/4 31/34/4
f 16/32/4 31/34/4 32/28/4
f 14/30/4 29/29/4 30/33/4
f 26/35/6 29/29/6 25/36/6
f 27/37/6 30/33/6 26/35/6
f 28/38/6 31/34/6 27/37/6
f 25/36/6 32/28/6 28/38/6
f 13/27/4 16/32/4 32/28/4
f 14/30/6 22/22/6 21/23/6
f 15/31/6 23/24/6 22/22/6
f 16/32/6 24/25/6 23/24/6
f 13/27/6 21/23/6 24/25/6
f 15/31/4 14/30/4 30/33/4
f 16/32/4 15/31/4 31/34/4
f 14/30/4 13/27/4 29/29/4
f 26/35/6 30/33/6 29/29/6
f 27/37/6 31/34/6 30/33/6
f 28/38/6 32/28/6 31/34/6
f 25/36/6 29/29/6 32/28/6
usemtl Leaves
f 25/36/1 34/39/1 26/35/1
f 36/40/4 37/41/4 33/42/4
f 28/38/4 33/42/4 25/36/4
f 26/35/2 35/43/2 27/37/2
f 27/37/3 36/40/3 28/38/3
f 40/44/7 43/45/7 44/46/7
f 34/39/2 39/47/2 35/43/2
f 35/43/3 40/44/3 36/40/3
f 33/42/1 38/48/1 34/39/1
f 44/46/4 45/49/4 41/50/4
f 38/48/8 41/50/8 42/51/8
f 40/44/9 41/50/9 37/41/9
f 38/48/10 43/45/10 39/47/10
f 46/52/6 48/53/6 47/54/6
f 42/51/2 47/54/2 43/45/2
f 43/45/3 48/53/3 44/46/3
f 41/50/1 46/52/1 42/51/1
f 25/36/1 33/42/1 34/39/1
f 36/40/4 40/44/4 37/41/4
f 28/38/4 36/40/4 33/42/4
f 26/35/2 34/39/2 35/43/2
f 27/37/3 35/43/3 36/40/3
f 40/44/7 39/47/7 43/45/7
f 34/39/2 38/48/2 39/47/2
f 35/43/3 39/47/3 40/44/3
f 33/42/1 37/41/1 38/48/1
f 44/46/4 48/53/4 45/49/4
f 38/48/8 37/41/8 41/50/8
f 40/44/9 44/46/9 41/50/9
f 38/48/10 42/51/10 43/45/10
f 46/52/6 45/49/6 48/53/6
f 42/51/2 46/52/2 47/54/2
f 43/45/3 47/54/3 48/53/3
f 41/50/1 45/49/1 46/52/1
