# Blender v2.91.0 OBJ File: 'simpleWall.blend'
# www.blender.org
mtllib borderedFence.mtl
o BorderedFence_Cube.049
v -0.050000 0.000737 0.504731
v -0.050000 0.584098 0.504731
v -0.050000 0.000737 0.411155
v -0.050000 0.584098 0.411155
v 0.050000 0.000737 0.504731
v 0.050000 0.584098 0.504731
v 0.050000 0.000737 0.411155
v 0.050000 0.584098 0.411155
v -0.050000 0.000737 -0.411315
v -0.050000 0.584098 -0.411315
v -0.050000 0.000737 -0.504891
v -0.050000 0.584098 -0.504891
v 0.050000 0.000737 -0.411315
v 0.050000 0.584098 -0.411315
v 0.050000 0.000737 -0.504891
v 0.050000 0.584098 -0.504891
v -0.050000 -0.011761 -0.498647
v -0.050000 -0.011761 0.501197
v -0.050000 0.081816 -0.498647
v -0.050000 0.081816 0.501197
v 0.050000 -0.011761 -0.498647
v 0.050000 -0.011761 0.501197
v 0.050000 0.081816 -0.498647
v 0.050000 0.081816 0.501197
v -0.050000 0.497766 -0.498647
v -0.050000 0.497766 0.501197
v -0.050000 0.591343 -0.498647
v -0.050000 0.591343 0.501197
v 0.050000 0.497766 -0.498647
v 0.050000 0.497766 0.501197
v 0.050000 0.591343 -0.498647
v 0.050000 0.591343 0.501197
v -0.006726 0.057369 0.439896
v -0.006726 0.522231 0.439896
v -0.006726 0.057369 0.357452
v -0.006726 0.522231 0.357452
v 0.006726 0.057369 0.439896
v 0.006726 0.522231 0.439896
v 0.006726 0.057369 0.357452
v 0.006726 0.522231 0.357452
v -0.006726 0.057369 -0.340367
v -0.006726 0.522231 -0.340367
v -0.006726 0.057369 -0.422811
v -0.006726 0.522231 -0.422811
v 0.006726 0.057369 -0.340367
v 0.006726 0.522231 -0.340367
v 0.006726 0.057369 -0.422811
v 0.006726 0.522231 -0.422811
v -0.006726 0.057369 -0.251191
v -0.006726 0.522231 -0.251191
v -0.006726 0.057369 -0.333635
v -0.006726 0.522231 -0.333635
v 0.006726 0.057369 -0.251191
v 0.006726 0.522231 -0.251191
v 0.006726 0.057369 -0.333635
v 0.006726 0.522231 -0.333635
v -0.006726 0.057369 -0.164267
v -0.006726 0.522231 -0.164267
v -0.006726 0.057369 -0.246711
v -0.006726 0.522231 -0.246711
v 0.006726 0.057369 -0.164267
v 0.006726 0.522231 -0.164267
v 0.006726 0.057369 -0.246711
v 0.006726 0.522231 -0.246711
v -0.006726 0.057369 -0.078484
v -0.006726 0.522231 -0.078484
v -0.006726 0.057369 -0.160927
v -0.006726 0.522231 -0.160927
v 0.006726 0.057369 -0.078484
v 0.006726 0.522231 -0.078484
v 0.006726 0.057369 -0.160927
v 0.006726 0.522231 -0.160927
v -0.006726 0.057369 0.008078
v -0.006726 0.522231 0.008078
v -0.006726 0.057369 -0.074366
v -0.006726 0.522231 -0.074366
v 0.006726 0.057369 0.008078
v 0.006726 0.522231 0.008078
v 0.006726 0.057369 -0.074366
v 0.006726 0.522231 -0.074366
v -0.006726 0.057369 0.093861
v -0.006726 0.522231 0.093861
v -0.006726 0.057369 0.011417
v -0.006726 0.522231 0.011417
v 0.006726 0.057369 0.093861
v 0.006726 0.522231 0.093861
v 0.006726 0.057369 0.011417
v 0.006726 0.522231 0.011417
v -0.006726 0.057369 0.266568
v -0.006726 0.522231 0.266568
v -0.006726 0.057369 0.184124
v -0.006726 0.522231 0.184124
v 0.006726 0.057369 0.266568
v 0.006726 0.522231 0.266568
v 0.006726 0.057369 0.184124
v 0.006726 0.522231 0.184124
v -0.006726 0.057369 0.180785
v -0.006726 0.522231 0.180785
v -0.006726 0.057369 0.098341
v -0.006726 0.522231 0.098341
v 0.006726 0.057369 0.180785
v 0.006726 0.522231 0.180785
v 0.006726 0.057369 0.098341
v 0.006726 0.522231 0.098341
v -0.006726 0.057369 0.354113
v -0.006726 0.522231 0.354113
v -0.006726 0.057369 0.271669
v -0.006726 0.522231 0.271669
v 0.006726 0.057369 0.354113
v 0.006726 0.522231 0.354113
v 0.006726 0.057369 0.271669
v 0.006726 0.522231 0.271669
vt 0.625000 0.000000
vt 0.375000 0.250000
vt 0.375000 0.000000
vt 0.625000 0.250000
vt 0.375000 0.500000
vt 0.625000 0.500000
vt 0.375000 0.750000
vt 0.625000 0.750000
vt 0.375000 1.000000
vt 0.125000 0.750000
vt 0.125000 0.500000
vt 0.875000 0.500000
vt 0.625000 0.000000
vt 0.375000 0.250000
vt 0.375000 0.000000
vt 0.625000 0.250000
vt 0.375000 0.500000
vt 0.625000 0.500000
vt 0.375000 0.750000
vt 0.625000 0.750000
vt 0.375000 1.000000
vt 0.125000 0.750000
vt 0.125000 0.500000
vt 0.875000 0.500000
vt 0.625000 0.000000
vt 0.375000 0.250000
vt 0.375000 0.000000
vt 0.625000 0.250000
vt 0.375000 0.500000
vt 0.625000 0.750000
vt 0.375000 0.750000
vt 0.375000 1.000000
vt 0.125000 0.750000
vt 0.125000 0.500000
vt 0.875000 0.500000
vt 0.625000 0.500000
vt 0.625000 0.000000
vt 0.375000 0.250000
vt 0.375000 0.000000
vt 0.625000 0.250000
vt 0.375000 0.500000
vt 0.625000 0.500000
vt 0.375000 0.750000
vt 0.625000 0.750000
vt 0.375000 1.000000
vt 0.125000 0.750000
vt 0.125000 0.500000
vt 0.875000 0.500000
vt 0.625000 1.000000
vt 0.875000 0.750000
vt 0.625000 1.000000
vt 0.875000 0.750000
vt 0.625000 1.000000
vt 0.875000 0.750000
vt 0.625000 1.000000
vt 0.875000 0.750000
vt 0.625000 0.000000
vt 0.375000 0.250000
vt 0.375000 0.000000
vt 0.625000 0.250000
vt 0.375000 0.500000
vt 0.625000 0.500000
vt 0.375000 0.750000
vt 0.625000 0.750000
vt 0.375000 1.000000
vt 0.125000 0.750000
vt 0.125000 0.500000
vt 0.875000 0.500000
vt 0.625000 0.000000
vt 0.375000 0.250000
vt 0.375000 0.000000
vt 0.625000 0.250000
vt 0.375000 0.500000
vt 0.625000 0.500000
vt 0.375000 0.750000
vt 0.625000 0.750000
vt 0.375000 1.000000
vt 0.125000 0.750000
vt 0.125000 0.500000
vt 0.875000 0.500000
vt 0.625000 0.000000
vt 0.375000 0.250000
vt 0.375000 0.000000
vt 0.625000 0.250000
vt 0.375000 0.500000
vt 0.625000 0.500000
vt 0.375000 0.750000
vt 0.625000 0.750000
vt 0.375000 1.000000
vt 0.125000 0.750000
vt 0.125000 0.500000
vt 0.875000 0.500000
vt 0.625000 0.000000
vt 0.375000 0.250000
vt 0.375000 0.000000
vt 0.625000 0.250000
vt 0.375000 0.500000
vt 0.625000 0.500000
vt 0.375000 0.750000
vt 0.625000 0.750000
vt 0.375000 1.000000
vt 0.125000 0.750000
vt 0.125000 0.500000
vt 0.875000 0.500000
vt 0.625000 0.000000
vt 0.375000 0.250000
vt 0.375000 0.000000
vt 0.625000 0.250000
vt 0.375000 0.500000
vt 0.625000 0.500000
vt 0.375000 0.750000
vt 0.625000 0.750000
vt 0.375000 1.000000
vt 0.125000 0.750000
vt 0.125000 0.500000
vt 0.875000 0.500000
vt 0.625000 0.000000
vt 0.375000 0.250000
vt 0.375000 0.000000
vt 0.625000 0.250000
vt 0.375000 0.500000
vt 0.625000 0.500000
vt 0.375000 0.750000
vt 0.625000 0.750000
vt 0.375000 1.000000
vt 0.125000 0.750000
vt 0.125000 0.500000
vt 0.875000 0.500000
vt 0.625000 0.000000
vt 0.375000 0.250000
vt 0.375000 0.000000
vt 0.625000 0.250000
vt 0.375000 0.500000
vt 0.625000 0.500000
vt 0.375000 0.750000
vt 0.625000 0.750000
vt 0.375000 1.000000
vt 0.125000 0.750000
vt 0.125000 0.500000
vt 0.875000 0.500000
vt 0.625000 0.000000
vt 0.375000 0.250000
vt 0.375000 0.000000
vt 0.625000 0.250000
vt 0.375000 0.500000
vt 0.625000 0.500000
vt 0.375000 0.750000
vt 0.625000 0.750000
vt 0.375000 1.000000
vt 0.125000 0.750000
vt 0.125000 0.500000
vt 0.875000 0.500000
vt 0.625000 0.000000
vt 0.375000 0.250000
vt 0.375000 0.000000
vt 0.625000 0.250000
vt 0.375000 0.500000
vt 0.625000 0.500000
vt 0.375000 0.750000
vt 0.625000 0.750000
vt 0.375000 1.000000
vt 0.125000 0.750000
vt 0.125000 0.500000
vt 0.875000 0.500000
vt 0.625000 0.000000
vt 0.375000 0.250000
vt 0.375000 0.000000
vt 0.625000 0.250000
vt 0.375000 0.500000
vt 0.625000 0.500000
vt 0.375000 0.750000
vt 0.625000 0.750000
vt 0.375000 1.000000
vt 0.125000 0.750000
vt 0.125000 0.500000
vt 0.875000 0.500000
vt 0.625000 1.000000
vt 0.875000 0.750000
vt 0.625000 1.000000
vt 0.875000 0.750000
vt 0.625000 1.000000
vt 0.875000 0.750000
vt 0.625000 1.000000
vt 0.875000 0.750000
vt 0.625000 1.000000
vt 0.875000 0.750000
vt 0.625000 1.000000
vt 0.875000 0.750000
vt 0.625000 1.000000
vt 0.875000 0.750000
vt 0.625000 1.000000
vt 0.875000 0.750000
vt 0.625000 1.000000
vt 0.875000 0.750000
vt 0.625000 1.000000
vt 0.875000 0.750000
vn -1.0000 0.0000 0.0000
vn 0.0000 0.0000 -1.0000
vn 1.0000 0.0000 0.0000
vn 0.0000 0.0000 1.0000
vn 0.0000 -1.0000 0.0000
vn 0.0000 1.0000 0.0000
usemtl Main
s off
f 2/1/1 3/2/1 1/3/1
f 4/4/2 7/5/2 3/2/2
f 8/6/3 5/7/3 7/5/3
f 6/8/4 1/9/4 5/7/4
f 7/5/5 1/10/5 3/11/5
f 4/12/6 6/8/6 8/6/6
f 10/13/1 11/14/1 9/15/1
f 12/16/2 15/17/2 11/14/2
f 16/18/3 13/19/3 15/17/3
f 14/20/4 9/21/4 13/19/4
f 15/17/5 9/22/5 11/23/5
f 12/24/6 14/20/6 16/18/6
f 18/25/1 19/26/1 17/27/1
f 20/28/6 23/29/6 19/26/6
f 23/29/3 22/30/3 21/31/3
f 22/30/5 17/32/5 21/31/5
f 23/29/2 17/33/2 19/34/2
f 20/35/4 22/30/4 24/36/4
f 26/37/1 27/38/1 25/39/1
f 28/40/6 31/41/6 27/38/6
f 32/42/3 29/43/3 31/41/3
f 30/44/5 25/45/5 29/43/5
f 31/41/2 25/46/2 27/47/2
f 28/48/4 30/44/4 32/42/4
f 2/1/1 4/4/1 3/2/1
f 4/4/2 8/6/2 7/5/2
f 8/6/3 6/8/3 5/7/3
f 6/8/4 2/49/4 1/9/4
f 7/5/5 5/7/5 1/10/5
f 4/12/6 2/50/6 6/8/6
f 10/13/1 12/16/1 11/14/1
f 12/16/2 16/18/2 15/17/2
f 16/18/3 14/20/3 13/19/3
f 14/20/4 10/51/4 9/21/4
f 15/17/5 13/19/5 9/22/5
f 12/24/6 10/52/6 14/20/6
f 18/25/1 20/28/1 19/26/1
f 20/28/6 24/36/6 23/29/6
f 23/29/3 24/36/3 22/30/3
f 22/30/5 18/53/5 17/32/5
f 23/29/2 21/31/2 17/33/2
f 20/35/4 18/54/4 22/30/4
f 26/37/1 28/40/1 27/38/1
f 28/40/6 32/42/6 31/41/6
f 32/42/3 30/44/3 29/43/3
f 30/44/5 26/55/5 25/45/5
f 31/41/2 29/43/2 25/46/2
f 28/48/4 26/56/4 30/44/4
usemtl Material.172
f 34/57/1 35/58/1 33/59/1
f 36/60/2 39/61/2 35/58/2
f 40/62/3 37/63/3 39/61/3
f 38/64/4 33/65/4 37/63/4
f 39/61/5 33/66/5 35/67/5
f 36/68/6 38/64/6 40/62/6
f 42/69/1 43/70/1 41/71/1
f 44/72/2 47/73/2 43/70/2
f 48/74/3 45/75/3 47/73/3
f 46/76/4 41/77/4 45/75/4
f 47/73/5 41/78/5 43/79/5
f 44/80/6 46/76/6 48/74/6
f 50/81/1 51/82/1 49/83/1
f 52/84/2 55/85/2 51/82/2
f 56/86/3 53/87/3 55/85/3
f 54/88/4 49/89/4 53/87/4
f 55/85/5 49/90/5 51/91/5
f 52/92/6 54/88/6 56/86/6
f 58/93/1 59/94/1 57/95/1
f 60/96/2 63/97/2 59/94/2
f 64/98/3 61/99/3 63/97/3
f 62/100/4 57/101/4 61/99/4
f 63/97/5 57/102/5 59/103/5
f 60/104/6 62/100/6 64/98/6
f 66/105/1 67/106/1 65/107/1
f 68/108/2 71/109/2 67/106/2
f 72/110/3 69/111/3 71/109/3
f 70/112/4 65/113/4 69/111/4
f 71/109/5 65/114/5 67/115/5
f 68/116/6 70/112/6 72/110/6
f 74/117/1 75/118/1 73/119/1
f 76/120/2 79/121/2 75/118/2
f 80/122/3 77/123/3 79/121/3
f 78/124/4 73/125/4 77/123/4
f 79/121/5 73/126/5 75/127/5
f 76/128/6 78/124/6 80/122/6
f 82/129/1 83/130/1 81/131/1
f 84/132/2 87/133/2 83/130/2
f 88/134/3 85/135/3 87/133/3
f 86/136/4 81/137/4 85/135/4
f 87/133/5 81/138/5 83/139/5
f 84/140/6 86/136/6 88/134/6
f 90/141/1 91/142/1 89/143/1
f 92/144/2 95/145/2 91/142/2
f 96/146/3 93/147/3 95/145/3
f 94/148/4 89/149/4 93/147/4
f 95/145/5 89/150/5 91/151/5
f 92/152/6 94/148/6 96/146/6
f 98/153/1 99/154/1 97/155/1
f 100/156/2 103/157/2 99/154/2
f 104/158/3 101/159/3 103/157/3
f 102/160/4 97/161/4 101/159/4
f 103/157/5 97/162/5 99/163/5
f 100/164/6 102/160/6 104/158/6
f 106/165/1 107/166/1 105/167/1
f 108/168/2 111/169/2 107/166/2
f 112/170/3 109/171/3 111/169/3
f 110/172/4 105/173/4 109/171/4
f 111/169/5 105/174/5 107/175/5
f 108/176/6 110/172/6 112/170/6
f 34/57/1 36/60/1 35/58/1
f 36/60/2 40/62/2 39/61/2
f 40/62/3 38/64/3 37/63/3
f 38/64/4 34/177/4 33/65/4
f 39/61/5 37/63/5 33/66/5
f 36/68/6 34/178/6 38/64/6
f 42/69/1 44/72/1 43/70/1
f 44/72/2 48/74/2 47/73/2
f 48/74/3 46/76/3 45/75/3
f 46/76/4 42/179/4 41/77/4
f 47/73/5 45/75/5 41/78/5
f 44/80/6 42/180/6 46/76/6
f 50/81/1 52/84/1 51/82/1
f 52/84/2 56/86/2 55/85/2
f 56/86/3 54/88/3 53/87/3
f 54/88/4 50/181/4 49/89/4
f 55/85/5 53/87/5 49/90/5
f 52/92/6 50/182/6 54/88/6
f 58/93/1 60/96/1 59/94/1
f 60/96/2 64/98/2 63/97/2
f 64/98/3 62/100/3 61/99/3
f 62/100/4 58/183/4 57/101/4
f 63/97/5 61/99/5 57/102/5
f 60/104/6 58/184/6 62/100/6
f 66/105/1 68/108/1 67/106/1
f 68/108/2 72/110/2 71/109/2
f 72/110/3 70/112/3 69/111/3
f 70/112/4 66/185/4 65/113/4
f 71/109/5 69/111/5 65/114/5
f 68/116/6 66/186/6 70/112/6
f 74/117/1 76/120/1 75/118/1
f 76/120/2 80/122/2 79/121/2
f 80/122/3 78/124/3 77/123/3
f 78/124/4 74/187/4 73/125/4
f 79/121/5 77/123/5 73/126/5
f 76/128/6 74/188/6 78/124/6
f 82/129/1 84/132/1 83/130/1
f 84/132/2 88/134/2 87/133/2
f 88/134/3 86/136/3 85/135/3
f 86/136/4 82/189/4 81/137/4
f 87/133/5 85/135/5 81/138/5
f 84/140/6 82/190/6 86/136/6
f 90/141/1 92/144/1 91/142/1
f 92/144/2 96/146/2 95/145/2
f 96/146/3 94/148/3 93/147/3
f 94/148/4 90/191/4 89/149/4
f 95/145/5 93/147/5 89/150/5
f 92/152/6 90/192/6 94/148/6
f 98/153/1 100/156/1 99/154/1
f 100/156/2 104/158/2 103/157/2
f 104/158/3 102/160/3 101/159/3
f 102/160/4 98/193/4 97/161/4
f 103/157/5 101/159/5 97/162/5
f 100/164/6 98/194/6 102/160/6
f 106/165/1 108/168/1 107/166/1
f 108/168/2 112/170/2 111/169/2
f 112/170/3 110/172/3 109/171/3
f 110/172/4 106/195/4 105/173/4
f 111/169/5 109/171/5 105/174/5
f 108/176/6 106/196/6 110/172/6
