# Blender v2.91.0 OBJ File: 'simpleWall.blend'
# www.blender.org
mtllib dish1.mtl
o Plate_Template_Cylinder.003
v -0.003497 0.000000 -0.061521
v 0.008208 0.000000 -0.060369
v 0.019464 0.000000 -0.056954
v 0.029837 0.000000 -0.051410
v 0.038929 0.000000 -0.043948
v 0.046391 0.000000 -0.034856
v 0.051936 0.000000 -0.024482
v 0.055350 0.000000 -0.013227
v 0.056503 0.000000 -0.001521
v 0.055350 0.000000 0.010184
v 0.051936 0.000000 0.021440
v 0.046391 0.000000 0.031813
v 0.038929 0.000000 0.040905
v 0.029837 0.000000 0.048367
v 0.019464 0.000000 0.053911
v 0.008208 0.000000 0.057326
v -0.003497 0.000000 0.058479
v -0.015202 0.000000 0.057326
v -0.026458 0.000000 0.053911
v -0.036831 0.000000 0.048367
v -0.045923 0.000000 0.040905
v -0.053385 0.000000 0.031813
v -0.058930 0.000000 0.021440
v -0.062344 0.000000 0.010184
v -0.063497 0.000000 -0.001521
v -0.062344 0.000000 -0.013227
v -0.058930 0.000000 -0.024482
v -0.053385 0.000000 -0.034856
v -0.045923 0.000000 -0.043948
v -0.036831 0.000000 -0.051410
v -0.026458 0.000000 -0.056954
v -0.015202 0.000000 -0.060369
v -0.003497 0.007002 -0.082367
v 0.012275 0.007002 -0.080814
v 0.027441 0.007002 -0.076213
v 0.041418 0.007002 -0.068742
v 0.053670 0.007002 -0.058688
v 0.063724 0.007002 -0.046437
v 0.071195 0.007002 -0.032460
v 0.075795 0.007002 -0.017294
v 0.077349 0.007002 -0.001521
v 0.075795 0.007002 0.014251
v 0.071195 0.007002 0.029417
v 0.063724 0.007002 0.043394
v 0.053670 0.007002 0.055645
v 0.041418 0.007002 0.065699
v 0.027441 0.007002 0.073170
v 0.012275 0.007002 0.077771
v -0.003497 0.007002 0.079324
v -0.019269 0.007002 0.077771
v -0.034435 0.007002 0.073170
v -0.048413 0.007002 0.065699
v -0.060664 0.007002 0.055645
v -0.070718 0.007002 0.043394
v -0.078189 0.007002 0.029417
v -0.082789 0.007002 0.014251
v -0.084343 0.007002 -0.001521
v -0.082789 0.007002 -0.017294
v -0.078189 0.007002 -0.032460
v -0.070718 0.007002 -0.046437
v -0.060664 0.007002 -0.058688
v -0.048412 0.007002 -0.068742
v -0.034435 0.007002 -0.076213
v -0.019269 0.007002 -0.080814
v -0.003497 -0.003674 -0.061521
v 0.008208 -0.003674 -0.060369
v 0.012275 0.003328 -0.080814
v 0.019464 -0.003674 -0.056954
v 0.027441 0.003328 -0.076213
v 0.029837 -0.003674 -0.051410
v 0.041418 0.003328 -0.068742
v 0.038929 -0.003674 -0.043948
v 0.053670 0.003328 -0.058688
v 0.046391 -0.003674 -0.034856
v 0.063724 0.003328 -0.046437
v 0.051936 -0.003674 -0.024482
v 0.071195 0.003328 -0.032460
v 0.055350 -0.003674 -0.013227
v 0.075795 0.003328 -0.017294
v 0.056503 -0.003674 -0.001521
v 0.077349 0.003328 -0.001521
v 0.055350 -0.003674 0.010184
v 0.075795 0.003328 0.014251
v 0.051936 -0.003674 0.021440
v 0.071195 0.003328 0.029417
v 0.046391 -0.003674 0.031813
v 0.063724 0.003328 0.043394
v 0.038929 -0.003674 0.040905
v 0.053670 0.003328 0.055645
v 0.029837 -0.003674 0.048367
v 0.041418 0.003328 0.065699
v 0.019464 -0.003674 0.053911
v 0.027441 0.003328 0.073170
v 0.008208 -0.003674 0.057326
v 0.012275 0.003328 0.077771
v -0.003497 -0.003674 0.058479
v -0.003497 0.003328 0.079324
v -0.015202 -0.003674 0.057326
v -0.019269 0.003328 0.077771
v -0.026458 -0.003674 0.053911
v -0.034435 0.003328 0.073170
v -0.036831 -0.003674 0.048367
v -0.048413 0.003328 0.065699
v -0.045923 -0.003674 0.040905
v -0.060664 0.003328 0.055645
v -0.053385 -0.003674 0.031813
v -0.070718 0.003328 0.043394
v -0.058930 -0.003674 0.021440
v -0.078189 0.003328 0.029417
v -0.062344 -0.003674 0.010184
v -0.082789 0.003328 0.014251
v -0.063497 -0.003674 -0.001521
v -0.084343 0.003328 -0.001521
v -0.062344 -0.003674 -0.013227
v -0.082789 0.003328 -0.017294
v -0.058930 -0.003674 -0.024482
v -0.078189 0.003328 -0.032460
v -0.053385 -0.003674 -0.034856
v -0.070718 0.003328 -0.046437
v -0.045923 -0.003674 -0.043948
v -0.060664 0.003328 -0.058688
v -0.036831 -0.003674 -0.051410
v -0.048412 0.003328 -0.068742
v -0.026458 -0.003674 -0.056954
v -0.034435 0.003328 -0.076213
v -0.015202 -0.003674 -0.060369
v -0.019269 0.003328 -0.080814
v -0.003497 0.003328 -0.082367
vt 0.796822 0.485388
vt 0.514612 0.296822
vt 0.703178 0.014612
vt 0.000000 0.500000
vt 0.031250 0.791610
vt 0.031250 0.500000
vt 0.062500 0.791610
vt 0.062500 0.500000
vt 0.093750 0.791610
vt 0.093750 0.500000
vt 0.125000 0.791610
vt 0.125000 0.500000
vt 0.156250 0.791610
vt 0.156250 0.500000
vt 0.187500 0.791610
vt 0.187500 0.500000
vt 0.218750 0.791610
vt 0.218750 0.500000
vt 0.250000 0.500000
vt 0.250000 0.791610
vt 0.281250 0.791610
vt 0.281250 0.500000
vt 0.312500 0.791610
vt 0.312500 0.500000
vt 0.343750 0.500000
vt 0.343750 0.791610
vt 0.375000 0.791610
vt 0.375000 0.500000
vt 0.406250 0.791610
vt 0.406250 0.500000
vt 0.437500 0.791610
vt 0.437500 0.500000
vt 0.468750 0.791610
vt 0.468750 0.500000
vt 0.500000 0.791610
vt 0.500000 0.500000
vt 0.531250 0.791610
vt 0.531250 0.500000
vt 0.562500 0.500000
vt 0.562500 0.791610
vt 0.593750 0.791610
vt 0.593750 0.500000
vt 0.625000 0.791610
vt 0.625000 0.500000
vt 0.656250 0.791610
vt 0.656250 0.500000
vt 0.687500 0.791610
vt 0.687500 0.500000
vt 0.718750 0.791610
vt 0.718750 0.500000
vt 0.750000 0.791610
vt 0.750000 0.500000
vt 0.781250 0.791610
vt 0.781250 0.500000
vt 0.812500 0.791610
vt 0.812500 0.500000
vt 0.843750 0.791610
vt 0.843750 0.500000
vt 0.875000 0.791610
vt 0.875000 0.500000
vt 0.906250 0.791610
vt 0.906250 0.500000
vt 0.937500 0.791610
vt 0.937500 0.500000
vt 0.968750 0.500000
vt 0.968750 0.791610
vt 1.000000 0.791610
vt 1.000000 0.500000
vt 0.514611 0.203179
vt 0.550447 0.383337
vt 0.703179 0.485389
vt 0.031250 0.791610
vt 0.000000 0.500000
vt 0.031250 0.500000
vt 0.062500 0.791610
vt 0.062500 0.500000
vt 0.093750 0.500000
vt 0.125000 0.791610
vt 0.125000 0.500000
vt 0.156250 0.500000
vt 0.187500 0.791610
vt 0.187500 0.500000
vt 0.218750 0.791610
vt 0.218750 0.500000
vt 0.250000 0.500000
vt 0.281250 0.791610
vt 0.281250 0.500000
vt 0.312500 0.791610
vt 0.312500 0.500000
vt 0.343750 0.500000
vt 0.375000 0.791610
vt 0.375000 0.500000
vt 0.406250 0.791610
vt 0.406250 0.500000
vt 0.437500 0.791610
vt 0.437500 0.500000
vt 0.468750 0.791610
vt 0.468750 0.500000
vt 0.500000 0.791610
vt 0.500000 0.500000
vt 0.531250 0.791610
vt 0.531250 0.500000
vt 0.562500 0.791610
vt 0.562500 0.500000
vt 0.593750 0.791610
vt 0.593750 0.500000
vt 0.625000 0.791610
vt 0.625000 0.500000
vt 0.656250 0.791610
vt 0.656250 0.500000
vt 0.687500 0.791610
vt 0.687500 0.500000
vt 0.718750 0.791610
vt 0.718750 0.500000
vt 0.750000 0.791610
vt 0.750000 0.500000
vt 0.781250 0.791610
vt 0.781250 0.500000
vt 0.812500 0.791610
vt 0.812500 0.500000
vt 0.843750 0.500000
vt 0.875000 0.791610
vt 0.875000 0.500000
vt 0.906250 0.791610
vt 0.906250 0.500000
vt 0.937500 0.791610
vt 0.937500 0.500000
vt 0.968750 0.791610
vt 0.968750 0.500000
vt 1.000000 0.791610
vt 1.000000 0.500000
vt 0.250000 0.791610
vt 0.343750 0.791610
vt 0.843750 0.791610
vt 0.000000 0.791610
vt 0.093750 0.791610
vt 0.156250 0.791610
vt 0.750000 0.490000
vt 0.703179 0.485389
vt 0.658156 0.471731
vt 0.616663 0.449553
vt 0.580295 0.419706
vt 0.550447 0.383337
vt 0.528269 0.341844
vt 0.510000 0.250000
vt 0.514611 0.203179
vt 0.528269 0.158156
vt 0.550447 0.116663
vt 0.580294 0.080294
vt 0.616663 0.050447
vt 0.658156 0.028269
vt 0.750000 0.010000
vt 0.796822 0.014612
vt 0.841844 0.028269
vt 0.883337 0.050447
vt 0.919706 0.080294
vt 0.949553 0.116663
vt 0.971731 0.158156
vt 0.985388 0.203178
vt 0.990000 0.250000
vt 0.985388 0.296822
vt 0.971731 0.341844
vt 0.949553 0.383337
vt 0.919706 0.419706
vt 0.883337 0.449553
vt 0.841844 0.471731
vt 0.750000 0.490000
vt 0.796822 0.485388
vt 0.841844 0.471731
vt 0.883337 0.449553
vt 0.919706 0.419706
vt 0.949553 0.383337
vt 0.971731 0.341844
vt 0.985388 0.296822
vt 0.990000 0.250000
vt 0.985388 0.203178
vt 0.971731 0.158156
vt 0.949553 0.116663
vt 0.919706 0.080294
vt 0.883337 0.050447
vt 0.841844 0.028269
vt 0.796822 0.014612
vt 0.750000 0.010000
vt 0.703178 0.014612
vt 0.658156 0.028269
vt 0.616663 0.050447
vt 0.580294 0.080294
vt 0.550447 0.116663
vt 0.528269 0.158156
vt 0.510000 0.250000
vt 0.514612 0.296822
vt 0.528269 0.341844
vt 0.580295 0.419706
vt 0.616663 0.449553
vt 0.658156 0.471731
vt 0.000000 0.791610
vn 0.0000 1.0000 0.0000
vn 0.0313 0.9475 0.3183
vn 0.0928 0.9475 0.3060
vn 0.1507 0.9475 0.2820
vn 0.2029 0.9475 0.2472
vn 0.2472 0.9475 0.2029
vn 0.2820 0.9475 0.1507
vn 0.3060 0.9475 0.0928
vn 0.3183 0.9475 0.0313
vn 0.3183 0.9475 -0.0313
vn 0.3060 0.9475 -0.0928
vn 0.2820 0.9475 -0.1507
vn 0.2472 0.9475 -0.2029
vn 0.2029 0.9475 -0.2472
vn 0.1507 0.9475 -0.2820
vn 0.0928 0.9475 -0.3060
vn 0.0313 0.9475 -0.3183
vn -0.0313 0.9475 -0.3183
vn -0.0928 0.9475 -0.3060
vn -0.1507 0.9475 -0.2820
vn -0.2029 0.9475 -0.2472
vn -0.2472 0.9475 -0.2029
vn -0.2820 0.9475 -0.1507
vn -0.3060 0.9475 -0.0928
vn -0.3183 0.9475 -0.0313
vn -0.3183 0.9475 0.0313
vn -0.3060 0.9475 0.0928
vn -0.2820 0.9475 0.1507
vn -0.2472 0.9475 0.2029
vn -0.2029 0.9475 0.2472
vn -0.1507 0.9475 0.2820
vn -0.0928 0.9475 0.3060
vn -0.0313 0.9475 0.3183
vn 0.0000 -1.0000 0.0000
vn -0.0313 -0.9475 -0.3183
vn -0.0928 -0.9475 -0.3060
vn -0.1507 -0.9475 -0.2820
vn -0.2029 -0.9475 -0.2472
vn -0.2472 -0.9475 -0.2029
vn -0.2820 -0.9475 -0.1507
vn -0.3060 -0.9475 -0.0928
vn -0.3183 -0.9475 -0.0313
vn -0.3183 -0.9475 0.0313
vn -0.3060 -0.9475 0.0928
vn -0.2820 -0.9475 0.1507
vn -0.2472 -0.9475 0.2029
vn -0.2029 -0.9475 0.2472
vn -0.1507 -0.9475 0.2820
vn -0.0928 -0.9475 0.3060
vn -0.0313 -0.9475 0.3183
vn 0.0313 -0.9475 0.3183
vn 0.0928 -0.9475 0.3060
vn 0.1507 -0.9475 0.2820
vn 0.2029 -0.9475 0.2472
vn 0.2472 -0.9475 0.2029
vn 0.2820 -0.9475 0.1507
vn 0.3060 -0.9475 0.0928
vn 0.3183 -0.9475 0.0313
vn 0.3183 -0.9475 -0.0313
vn 0.3060 -0.9475 -0.0928
vn 0.2820 -0.9475 -0.1507
vn 0.2472 -0.9475 -0.2029
vn 0.2029 -0.9475 -0.2472
vn 0.1507 -0.9475 -0.2820
vn 0.0928 -0.9475 -0.3060
vn 0.0313 -0.9475 -0.3183
vn 0.6344 0.0000 0.7730
vn -0.9569 0.0000 -0.2903
vn 0.7730 0.0000 0.6344
vn -0.9952 0.0000 -0.0980
vn 0.8819 0.0000 0.4714
vn -0.9952 0.0000 0.0980
vn 0.9569 0.0000 0.2903
vn -0.9569 0.0000 0.2903
vn 0.9952 -0.0000 0.0980
vn -0.8819 0.0000 0.4714
vn 0.9952 0.0000 -0.0980
vn -0.7730 0.0000 0.6344
vn 0.9569 0.0000 -0.2903
vn -0.6344 0.0000 0.7730
vn 0.8819 0.0000 -0.4714
vn -0.4714 0.0000 0.8819
vn -0.0980 0.0000 -0.9952
vn 0.7730 0.0000 -0.6344
vn -0.2903 0.0000 0.9569
vn -0.2903 0.0000 -0.9569
vn 0.6344 0.0000 -0.7730
vn -0.0980 0.0000 0.9952
vn -0.4714 0.0000 -0.8819
vn 0.4714 0.0000 -0.8819
vn 0.0980 0.0000 0.9952
vn -0.6344 0.0000 -0.7730
vn 0.2903 0.0000 -0.9569
vn 0.2903 0.0000 0.9569
vn -0.7730 0.0000 -0.6344
vn 0.0980 0.0000 -0.9952
vn 0.4714 0.0000 0.8819
vn -0.8819 0.0000 -0.4714
usemtl Plate
s off
f 2/1/1 26/2/1 18/3/1
f 1/4/2 64/5/2 32/6/2
f 32/6/3 63/7/3 31/8/3
f 31/8/4 62/9/4 30/10/4
f 30/10/5 61/11/5 29/12/5
f 29/12/6 60/13/6 28/14/6
f 28/14/7 59/15/7 27/16/7
f 27/16/8 58/17/8 26/18/8
f 25/19/9 58/17/9 57/20/9
f 25/19/10 56/21/10 24/22/10
f 24/22/11 55/23/11 23/24/11
f 22/25/12 55/23/12 54/26/12
f 22/25/13 53/27/13 21/28/13
f 21/28/14 52/29/14 20/30/14
f 20/30/15 51/31/15 19/32/15
f 19/32/16 50/33/16 18/34/16
f 18/34/17 49/35/17 17/36/17
f 17/36/18 48/37/18 16/38/18
f 15/39/19 48/37/19 47/40/19
f 15/39/20 46/41/20 14/42/20
f 14/42/21 45/43/21 13/44/21
f 13/44/22 44/45/22 12/46/22
f 12/46/23 43/47/23 11/48/23
f 11/48/24 42/49/24 10/50/24
f 10/50/25 41/51/25 9/52/25
f 9/52/26 40/53/26 8/54/26
f 8/54/27 39/55/27 7/56/27
f 7/56/28 38/57/28 6/58/28
f 6/58/29 37/59/29 5/60/29
f 5/60/30 36/61/30 4/62/30
f 4/62/31 35/63/31 3/64/31
f 2/65/32 35/63/32 34/66/32
f 2/65/33 33/67/33 1/68/33
f 110/69/34 118/70/34 126/71/34
f 127/72/35 65/73/35 126/74/35
f 125/75/36 126/74/36 124/76/36
f 122/77/37 125/75/37 124/76/37
f 121/78/38 122/77/38 120/79/38
f 118/80/39 121/78/39 120/79/39
f 117/81/40 118/80/40 116/82/40
f 115/83/41 116/82/41 114/84/41
f 112/85/42 115/83/42 114/84/42
f 111/86/43 112/85/43 110/87/43
f 109/88/44 110/87/44 108/89/44
f 106/90/45 109/88/45 108/89/45
f 105/91/46 106/90/46 104/92/46
f 103/93/47 104/92/47 102/94/47
f 101/95/48 102/94/48 100/96/48
f 99/97/49 100/96/49 98/98/49
f 97/99/50 98/98/50 96/100/50
f 95/101/51 96/100/51 94/102/51
f 93/103/52 94/102/52 92/104/52
f 91/105/53 92/104/53 90/106/53
f 89/107/54 90/106/54 88/108/54
f 87/109/55 88/108/55 86/110/55
f 85/111/56 86/110/56 84/112/56
f 83/113/57 84/112/57 82/114/57
f 81/115/58 82/114/58 80/116/58
f 79/117/59 80/116/59 78/118/59
f 77/119/60 78/118/60 76/120/60
f 74/121/61 77/119/61 76/120/61
f 73/122/62 74/121/62 72/123/62
f 71/124/63 72/123/63 70/125/63
f 69/126/64 70/125/64 68/127/64
f 67/128/65 68/127/65 66/129/65
f 128/130/66 66/129/66 65/131/66
f 46/41/67 89/107/67 45/43/67
f 59/15/68 115/83/68 58/17/68
f 45/43/69 87/109/69 44/45/69
f 58/17/70 113/132/70 57/20/70
f 44/45/71 85/111/71 43/47/71
f 57/20/72 111/86/72 56/21/72
f 43/47/73 83/113/73 42/49/73
f 56/21/74 109/88/74 55/23/74
f 42/49/75 81/115/75 41/51/75
f 55/23/76 107/133/76 54/26/76
f 41/51/77 79/117/77 40/53/77
f 54/26/78 105/91/78 53/27/78
f 40/53/79 77/119/79 39/55/79
f 53/27/80 103/93/80 52/29/80
f 39/55/81 75/134/81 38/57/81
f 52/29/82 101/95/82 51/31/82
f 33/135/83 127/72/83 64/5/83
f 38/57/84 73/122/84 37/59/84
f 51/31/85 99/97/85 50/33/85
f 64/5/86 125/75/86 63/7/86
f 37/59/87 71/124/87 36/61/87
f 50/33/88 97/99/88 49/35/88
f 63/7/89 123/136/89 62/9/89
f 36/61/90 69/126/90 35/63/90
f 49/35/91 95/101/91 48/37/91
f 62/9/92 121/78/92 61/11/92
f 35/63/93 67/128/93 34/66/93
f 48/37/94 93/103/94 47/40/94
f 61/11/95 119/137/95 60/13/95
f 34/66/96 128/130/96 33/67/96
f 47/40/97 91/105/97 46/41/97
f 60/13/98 117/81/98 59/15/98
f 2/1/1 1/138/1 32/139/1
f 32/139/1 31/140/1 2/1/1
f 31/140/1 30/141/1 2/1/1
f 30/141/1 29/142/1 28/143/1
f 28/143/1 27/144/1 30/141/1
f 27/144/1 26/2/1 30/141/1
f 26/2/1 25/145/1 24/146/1
f 24/146/1 23/147/1 26/2/1
f 23/147/1 22/148/1 26/2/1
f 22/148/1 21/149/1 20/150/1
f 20/150/1 19/151/1 18/3/1
f 18/3/1 17/152/1 16/153/1
f 16/153/1 15/154/1 18/3/1
f 15/154/1 14/155/1 18/3/1
f 14/155/1 13/156/1 12/157/1
f 12/157/1 11/158/1 14/155/1
f 11/158/1 10/159/1 14/155/1
f 10/159/1 9/160/1 8/161/1
f 8/161/1 7/162/1 10/159/1
f 7/162/1 6/163/1 10/159/1
f 6/163/1 5/164/1 4/165/1
f 4/165/1 3/166/1 2/1/1
f 22/148/1 20/150/1 18/3/1
f 6/163/1 4/165/1 2/1/1
f 2/1/1 30/141/1 26/2/1
f 26/2/1 22/148/1 18/3/1
f 18/3/1 14/155/1 10/159/1
f 10/159/1 6/163/1 18/3/1
f 6/163/1 2/1/1 18/3/1
f 1/4/2 33/135/2 64/5/2
f 32/6/3 64/5/3 63/7/3
f 31/8/4 63/7/4 62/9/4
f 30/10/5 62/9/5 61/11/5
f 29/12/6 61/11/6 60/13/6
f 28/14/7 60/13/7 59/15/7
f 27/16/8 59/15/8 58/17/8
f 25/19/9 26/18/9 58/17/9
f 25/19/10 57/20/10 56/21/10
f 24/22/11 56/21/11 55/23/11
f 22/25/12 23/24/12 55/23/12
f 22/25/13 54/26/13 53/27/13
f 21/28/14 53/27/14 52/29/14
f 20/30/15 52/29/15 51/31/15
f 19/32/16 51/31/16 50/33/16
f 18/34/17 50/33/17 49/35/17
f 17/36/18 49/35/18 48/37/18
f 15/39/19 16/38/19 48/37/19
f 15/39/20 47/40/20 46/41/20
f 14/42/21 46/41/21 45/43/21
f 13/44/22 45/43/22 44/45/22
f 12/46/23 44/45/23 43/47/23
f 11/48/24 43/47/24 42/49/24
f 10/50/25 42/49/25 41/51/25
f 9/52/26 41/51/26 40/53/26
f 8/54/27 40/53/27 39/55/27
f 7/56/28 39/55/28 38/57/28
f 6/58/29 38/57/29 37/59/29
f 5/60/30 37/59/30 36/61/30
f 4/62/31 36/61/31 35/63/31
f 2/65/32 3/64/32 35/63/32
f 2/65/33 34/66/33 33/67/33
f 126/71/34 65/167/34 66/168/34
f 66/168/34 68/169/34 70/170/34
f 70/170/34 72/171/34 74/172/34
f 74/172/34 76/173/34 78/174/34
f 78/174/34 80/175/34 82/176/34
f 82/176/34 84/177/34 78/174/34
f 84/177/34 86/178/34 78/174/34
f 86/178/34 88/179/34 90/180/34
f 90/180/34 92/181/34 86/178/34
f 92/181/34 94/182/34 86/178/34
f 94/182/34 96/183/34 98/184/34
f 98/184/34 100/185/34 102/186/34
f 102/186/34 104/187/34 106/188/34
f 106/188/34 108/189/34 102/186/34
f 108/189/34 110/69/34 102/186/34
f 110/69/34 112/190/34 114/191/34
f 114/191/34 116/192/34 110/69/34
f 116/192/34 118/70/34 110/69/34
f 118/70/34 120/193/34 122/194/34
f 122/194/34 124/195/34 118/70/34
f 124/195/34 126/71/34 118/70/34
f 126/71/34 66/168/34 70/170/34
f 70/170/34 74/172/34 78/174/34
f 94/182/34 98/184/34 102/186/34
f 126/71/34 70/170/34 78/174/34
f 78/174/34 86/178/34 126/71/34
f 86/178/34 94/182/34 126/71/34
f 94/182/34 102/186/34 126/71/34
f 102/186/34 110/69/34 126/71/34
f 127/72/35 128/196/35 65/73/35
f 125/75/36 127/72/36 126/74/36
f 122/77/37 123/136/37 125/75/37
f 121/78/38 123/136/38 122/77/38
f 118/80/39 119/137/39 121/78/39
f 117/81/40 119/137/40 118/80/40
f 115/83/41 117/81/41 116/82/41
f 112/85/42 113/132/42 115/83/42
f 111/86/43 113/132/43 112/85/43
f 109/88/44 111/86/44 110/87/44
f 106/90/45 107/133/45 109/88/45
f 105/91/46 107/133/46 106/90/46
f 103/93/47 105/91/47 104/92/47
f 101/95/48 103/93/48 102/94/48
f 99/97/49 101/95/49 100/96/49
f 97/99/50 99/97/50 98/98/50
f 95/101/51 97/99/51 96/100/51
f 93/103/52 95/101/52 94/102/52
f 91/105/53 93/103/53 92/104/53
f 89/107/54 91/105/54 90/106/54
f 87/109/55 89/107/55 88/108/55
f 85/111/56 87/109/56 86/110/56
f 83/113/57 85/111/57 84/112/57
f 81/115/58 83/113/58 82/114/58
f 79/117/59 81/115/59 80/116/59
f 77/119/60 79/117/60 78/118/60
f 74/121/61 75/134/61 77/119/61
f 73/122/62 75/134/62 74/121/62
f 71/124/63 73/122/63 72/123/63
f 69/126/64 71/124/64 70/125/64
f 67/128/65 69/126/65 68/127/65
f 128/130/66 67/128/66 66/129/66
f 46/41/67 91/105/67 89/107/67
f 59/15/68 117/81/68 115/83/68
f 45/43/69 89/107/69 87/109/69
f 58/17/70 115/83/70 113/132/70
f 44/45/71 87/109/71 85/111/71
f 57/20/72 113/132/72 111/86/72
f 43/47/73 85/111/73 83/113/73
f 56/21/74 111/86/74 109/88/74
f 42/49/75 83/113/75 81/115/75
f 55/23/76 109/88/76 107/133/76
f 41/51/77 81/115/77 79/117/77
f 54/26/78 107/133/78 105/91/78
f 40/53/79 79/117/79 77/119/79
f 53/27/80 105/91/80 103/93/80
f 39/55/81 77/119/81 75/134/81
f 52/29/82 103/93/82 101/95/82
f 33/135/83 128/196/83 127/72/83
f 38/57/84 75/134/84 73/122/84
f 51/31/85 101/95/85 99/97/85
f 64/5/86 127/72/86 125/75/86
f 37/59/87 73/122/87 71/124/87
f 50/33/88 99/97/88 97/99/88
f 63/7/89 125/75/89 123/136/89
f 36/61/90 71/124/90 69/126/90
f 49/35/91 97/99/91 95/101/91
f 62/9/92 123/136/92 121/78/92
f 35/63/93 69/126/93 67/128/93
f 48/37/94 95/101/94 93/103/94
f 61/11/95 121/78/95 119/137/95
f 34/66/96 67/128/96 128/130/96
f 47/40/97 93/103/97 91/105/97
f 60/13/98 119/137/98 117/81/98
