# Blender v2.91.0 OBJ File: 'simpleWall.blend'
# www.blender.org
mtllib Pillar.mtl
o Pillar1_Cube.063
v -0.075091 -0.004487 0.075091
v -0.075091 1.007758 0.075091
v -0.075091 -0.004487 -0.075091
v -0.075091 1.007758 -0.075091
v 0.075091 -0.004487 0.075091
v 0.075091 1.007758 0.075091
v 0.075091 -0.004487 -0.075091
v 0.075091 1.007758 -0.075091
v -0.075091 1.007758 0.075091
v -0.075091 1.007758 -0.075091
v 0.075091 1.007758 -0.075091
v 0.075091 1.007758 0.075091
v -0.075091 1.015624 0.075091
v -0.075091 1.015624 -0.075091
v 0.075091 1.015624 -0.075091
v 0.075091 1.015624 0.075091
v -0.094870 1.042817 0.094870
v -0.094870 1.042817 -0.094870
v 0.094870 1.042817 -0.094870
v 0.094870 1.042817 0.094870
vt 0.625000 0.000000
vt 0.375000 0.250000
vt 0.375000 0.000000
vt 0.625000 0.250000
vt 0.375000 0.500000
vt 0.625000 0.500000
vt 0.375000 0.750000
vt 0.625000 0.750000
vt 0.375000 1.000000
vt 0.125000 0.750000
vt 0.125000 0.500000
vt 0.625000 0.000000
vt 0.625000 0.250000
vt 0.625000 0.500000
vt 0.625000 0.500000
vt 0.625000 1.000000
vt 0.625000 0.750000
vt 0.625000 1.000000
vt 0.625000 0.750000
vt 0.625000 0.750000
vt 0.625000 0.250000
vt 0.625000 1.000000
vt 0.875000 0.500000
vt 0.625000 0.500000
vt 0.625000 0.000000
vt 0.625000 0.250000
vt 0.625000 1.000000
vt 0.875000 0.750000
vt 0.625000 0.000000
vn -1.0000 0.0000 0.0000
vn 0.0000 0.0000 -1.0000
vn 1.0000 0.0000 0.0000
vn 0.0000 0.0000 1.0000
vn 0.0000 -1.0000 0.0000
vn 0.8087 -0.5882 0.0000
vn 0.0000 1.0000 0.0000
vn -0.8087 -0.5882 0.0000
vn 0.0000 -0.5882 0.8087
vn 0.0000 -0.5882 -0.8087
usemtl Material.179
s off
f 2/1/1 3/2/1 1/3/1
f 4/4/2 7/5/2 3/2/2
f 8/6/3 5/7/3 7/5/3
f 6/8/4 1/9/4 5/7/4
f 7/5/5 1/10/5 3/11/5
f 4/4/4 9/12/4 10/13/4
f 10/13/2 15/14/2 11/15/2
f 2/16/4 12/17/4 9/18/4
f 8/6/4 10/13/4 11/15/4
f 6/8/4 11/15/4 12/17/4
f 15/14/6 20/19/6 16/20/6
f 11/15/3 16/20/3 12/17/3
f 9/12/1 14/21/1 10/13/1
f 12/17/4 13/22/4 9/18/4
f 18/23/7 20/19/7 19/24/7
f 13/25/8 18/26/8 14/21/8
f 13/22/9 20/19/9 17/27/9
f 15/14/10 18/26/10 19/24/10
f 2/1/1 4/4/1 3/2/1
f 4/4/2 8/6/2 7/5/2
f 8/6/3 6/8/3 5/7/3
f 6/8/4 2/16/4 1/9/4
f 7/5/5 5/7/5 1/10/5
f 4/4/4 2/1/4 9/12/4
f 10/13/2 14/21/2 15/14/2
f 2/16/4 6/8/4 12/17/4
f 8/6/4 4/4/4 10/13/4
f 6/8/4 8/6/4 11/15/4
f 15/14/6 19/24/6 20/19/6
f 11/15/3 15/14/3 16/20/3
f 9/12/1 13/25/1 14/21/1
f 12/17/4 16/20/4 13/22/4
f 18/23/7 17/28/7 20/19/7
f 13/25/8 17/29/8 18/26/8
f 13/22/9 16/20/9 20/19/9
f 15/14/10 14/21/10 18/26/10
