# Blender v2.91.0 OBJ File: 'simpleWall.blend'
# www.blender.org
mtllib chair.mtl
o Cube.006_Cube.047
v 0.017786 0.259150 -0.129190
v 0.014282 0.296648 -0.132920
v 0.000186 0.259150 -0.152814
v 0.069333 0.259150 -0.129190
v 0.069333 0.259150 -0.077643
v 0.017786 0.259150 -0.077643
v 0.069333 -0.005624 -0.077643
v 0.017786 -0.005624 -0.077643
v 0.069333 -0.005624 -0.129190
v 0.017786 -0.005624 -0.129190
v 0.288214 0.259150 -0.129190
v 0.045536 0.296648 -0.132920
v 0.153000 0.259150 -0.152814
v 0.029909 0.296648 -0.132920
v 0.305814 0.259150 -0.152814
v 0.236667 0.259150 -0.129190
v 0.236667 0.259150 -0.077643
v 0.288214 0.259150 -0.077643
v 0.236667 -0.005624 -0.077643
v 0.288214 -0.005624 -0.077643
v 0.236667 -0.005624 -0.129190
v 0.288214 -0.005624 -0.129190
v 0.000186 0.305629 -0.152814
v 0.000186 0.259150 -0.152814
v 0.000186 0.305629 -0.152814
v 0.014282 0.296648 -0.108160
v 0.153000 0.305629 -0.152814
v 0.029909 0.296648 -0.108160
v 0.305814 0.305629 -0.152814
v 0.045536 0.296648 -0.108160
v 0.014282 0.495338 -0.108160
v 0.029909 0.495338 -0.108160
v 0.045536 0.495338 -0.108160
v 0.014282 0.495338 -0.132920
v 0.029909 0.495338 -0.132920
v 0.045536 0.495338 -0.132920
v 0.014282 0.522738 -0.108160
v 0.029909 0.522738 -0.108160
v 0.045536 0.522738 -0.108160
v 0.014282 0.522738 -0.132920
v 0.029909 0.522738 -0.132920
v 0.045536 0.522738 -0.132920
v 0.014282 0.495338 -0.108160
v 0.029909 0.495338 -0.108160
v 0.045536 0.495338 -0.108160
v 0.014282 0.522738 -0.108160
v 0.029909 0.522738 -0.108160
v 0.045536 0.522738 -0.108160
v 0.014282 0.562112 -0.108160
v 0.029909 0.562112 -0.108160
v 0.045536 0.562112 -0.108160
v 0.014282 0.562112 -0.132920
v 0.029909 0.562112 -0.132920
v 0.045536 0.562112 -0.132920
v 0.014282 0.590416 -0.108160
v 0.029909 0.590416 -0.108160
v 0.045536 0.590416 -0.108160
v 0.014282 0.590416 -0.132920
v 0.029909 0.590416 -0.132920
v 0.045536 0.590416 -0.132920
v 0.014282 0.624861 -0.108160
v 0.029909 0.624861 -0.108160
v 0.045536 0.624861 -0.108160
v 0.014282 0.624861 -0.132920
v 0.029909 0.624861 -0.132920
v 0.045536 0.624861 -0.132920
v 0.017786 0.259150 0.129190
v 0.014282 0.296648 0.132920
v 0.000186 0.259150 0.000000
v 0.000186 0.305629 0.000000
v 0.000186 0.259150 0.152814
v 0.069333 0.259150 0.129190
v 0.069333 0.259150 0.077643
v 0.017786 0.259150 0.077643
v 0.069333 -0.005624 0.077643
v 0.017786 -0.005624 0.077643
v 0.069333 -0.005624 0.129190
v 0.017786 -0.005624 0.129190
v 0.288214 0.259150 0.129190
v 0.045536 0.296648 0.132920
v 0.305814 0.259150 0.000000
v 0.305814 0.305629 0.000000
v 0.153000 0.259150 0.152814
v 0.029909 0.296648 0.132920
v 0.153000 0.305629 0.000000
v 0.153000 0.259150 0.000000
v 0.305814 0.259150 0.152814
v 0.236667 0.259150 0.129190
v 0.236667 0.259150 0.077643
v 0.288214 0.259150 0.077643
v 0.236667 -0.005624 0.077643
v 0.288214 -0.005624 0.077643
v 0.236667 -0.005624 0.129190
v 0.288214 -0.005624 0.129190
v 0.000186 0.305629 0.000000
v 0.000186 0.305629 0.152814
v 0.000186 0.259150 0.152814
v 0.000186 0.259150 0.000000
v 0.000186 0.305629 0.152814
v 0.014282 0.296648 0.108160
v 0.153000 0.305629 0.152814
v 0.029909 0.296648 0.108160
v 0.305814 0.305629 0.152814
v 0.045536 0.296648 0.108160
v 0.014282 0.495338 0.108160
v 0.029909 0.495338 0.108160
v 0.045536 0.495338 0.108160
v 0.014282 0.495338 0.132920
v 0.029909 0.495338 0.132920
v 0.045536 0.495338 0.132920
v 0.014282 0.522738 0.108160
v 0.029909 0.522738 0.108160
v 0.045536 0.522738 0.108160
v 0.014282 0.522738 0.132920
v 0.029909 0.522738 0.132920
v 0.045536 0.522738 0.132920
v 0.014282 0.495338 0.108160
v 0.029909 0.495338 0.108160
v 0.045536 0.495338 0.108160
v 0.014282 0.522738 0.108160
v 0.029909 0.522738 0.108160
v 0.045536 0.522738 0.108160
v 0.014282 0.562112 0.108160
v 0.029909 0.562112 0.108160
v 0.045536 0.562112 0.108160
v 0.014282 0.562112 0.132920
v 0.029909 0.562112 0.132920
v 0.045536 0.562112 0.132920
v 0.014282 0.590416 0.108160
v 0.029909 0.590416 0.108160
v 0.045536 0.590416 0.108160
v 0.014282 0.590416 0.132920
v 0.029909 0.590416 0.132920
v 0.045536 0.590416 0.132920
v 0.014282 0.624861 0.108160
v 0.029909 0.624861 0.108160
v 0.045536 0.624861 0.108160
v 0.014282 0.624861 0.132920
v 0.029909 0.624861 0.132920
v 0.045536 0.624861 0.132920
vt 0.166417 0.541417
vt 0.166417 0.583583
vt 0.166417 0.583583
vt 0.625000 0.250000
vt 0.375000 0.375000
vt 0.375000 0.250000
vt 0.208583 0.541417
vt 0.125000 0.500000
vt 0.250000 0.500000
vt 0.208583 0.583583
vt 0.125000 0.625000
vt 0.250000 0.625000
vt 0.208583 0.541417
vt 0.166417 0.541417
vt 0.208583 0.583583
vt 0.375000 0.250000
vt 0.625000 0.125000
vt 0.375000 0.125000
vt 0.166417 0.583583
vt 0.166417 0.541417
vt 0.166417 0.583583
vt 0.625000 0.250000
vt 0.208583 0.541417
vt 0.125000 0.500000
vt 0.125000 0.625000
vt 0.208583 0.583583
vt 0.208583 0.541417
vt 0.166417 0.541417
vt 0.208583 0.583583
vt 0.840213 0.577161
vt 0.840214 0.547838
vt 0.840214 0.547838
vt 0.625000 0.125000
vt 0.375000 0.250000
vt 0.375000 0.125000
vt 0.125000 0.625000
vt 0.125000 0.500000
vt nan nan
vt nan nan
vt nan nan
vt 0.875000 0.625000
vt 0.875000 0.500000
vt 0.875000 0.625000
vt 0.875000 0.500000
vt 0.803174 0.547838
vt 0.803174 0.577162
vt 0.750000 0.625000
vt 0.840213 0.577162
vt 0.875000 0.500000
vt 0.840214 0.547838
vt 0.750000 0.500000
vt 0.875000 0.625000
vt 0.803174 0.577162
vt 0.840213 0.577161
vt 0.803174 0.577162
vt 0.840213 0.577162
vt 0.803174 0.547838
vt 0.803174 0.577162
vt 0.840214 0.547838
vt 0.840213 0.577161
vt 0.840213 0.577161
vt 0.840213 0.577161
vt 0.840213 0.577162
vt 0.840214 0.547838
vt 0.840213 0.577162
vt 0.803174 0.577162
vt 0.840214 0.547838
vt 0.803174 0.547838
vt 0.803174 0.577162
vt 0.840213 0.577161
vt 0.840213 0.577161
vt 0.840213 0.577161
vt 0.840213 0.577162
vt 0.803174 0.547838
vt 0.840214 0.547838
vt 0.840214 0.547838
vt 0.803174 0.577162
vt 0.840213 0.577162
vt 0.840214 0.547838
vt 0.840213 0.577162
vt 0.840213 0.577162
vt 0.803174 0.547838
vt 0.803174 0.577162
vt 0.840214 0.547838
vt 0.840213 0.577161
vt 0.803174 0.577162
vt 0.840214 0.547838
vt 0.840214 0.547838
vt 0.840213 0.577161
vt 0.803174 0.547838
vt nan nan
vt nan nan
vt nan nan
vt 0.166417 0.583583
vt 0.166417 0.541417
vt 0.166417 0.583583
vt 0.375000 0.375000
vt 0.625000 0.250000
vt 0.375000 0.250000
vt 0.208583 0.541417
vt 0.125000 0.500000
vt 0.208583 0.583583
vt 0.250000 0.500000
vt 0.208583 0.541417
vt 0.166417 0.541417
vt 0.208583 0.583583
vt 0.375000 0.250000
vt 0.166417 0.541417
vt 0.166417 0.583583
vt 0.166417 0.583583
vt 0.625000 0.250000
vt 0.208583 0.541417
vt 0.125000 0.500000
vt 0.208583 0.583583
vt 0.208583 0.541417
vt 0.166417 0.541417
vt 0.208583 0.583583
vt 0.840214 0.547838
vt 0.840213 0.577161
vt 0.840214 0.547838
vt 0.375000 0.250000
vt nan nan
vt nan nan
vt nan nan
vt 0.875000 0.500000
vt 0.875000 0.500000
vt 0.803174 0.547838
vt 0.803174 0.577162
vt 0.875000 0.500000
vt 0.840213 0.577162
vt 0.840214 0.547838
vt 0.750000 0.500000
vt 0.803174 0.577162
vt 0.840213 0.577161
vt 0.840213 0.577162
vt 0.803174 0.547838
vt 0.803174 0.577162
vt 0.840214 0.547838
vt 0.840213 0.577161
vt 0.840213 0.577161
vt 0.840213 0.577162
vt 0.840214 0.547838
vt 0.840213 0.577162
vt 0.840214 0.547838
vt 0.803174 0.547838
vt 0.803174 0.577162
vt 0.840213 0.577162
vt 0.840214 0.547838
vt 0.803174 0.547838
vt 0.840214 0.547838
vt 0.803174 0.577162
vt 0.840213 0.577162
vt 0.840214 0.547838
vt 0.840213 0.577162
vt 0.840213 0.577162
vt 0.803174 0.547838
vt 0.803174 0.577162
vt 0.840214 0.547838
vt 0.840213 0.577161
vt 0.803174 0.577162
vt 0.840213 0.577161
vt 0.840214 0.547838
vt 0.840214 0.547838
vt 0.803174 0.547838
vt 0.000000 0.000000
vt 0.000000 0.000000
vt 0.000000 0.000000
vt 0.000000 0.000000
vt 0.000000 0.000000
vt 0.000000 0.000000
vt 0.000000 0.000000
vt 0.000000 0.000000
vt 0.000000 0.000000
vt 0.000000 0.000000
vt 0.000000 0.000000
vt 0.000000 0.000000
vt 0.625000 0.375000
vt 0.625000 0.250000
vt nan nan
vt nan nan
vt nan nan
vt nan nan
vt nan nan
vt nan nan
vt 0.625000 0.375000
vt 0.625000 0.250000
vt 0.125000 0.500000
vt nan nan
vt nan nan
vt nan nan
vt 0.000000 0.000000
vt 0.000000 0.000000
vt 0.000000 0.000000
vt 0.000000 0.000000
vt 0.000000 0.000000
vt 0.000000 0.000000
vt 0.000000 0.000000
vt 0.000000 0.000000
vt 0.000000 0.000000
vt 0.000000 0.000000
vt 0.000000 0.000000
vt 0.000000 0.000000
vn -1.0000 0.0000 0.0000
vn 0.0000 0.0000 -1.0000
vn 0.0000 -1.0000 0.0000
vn 1.0000 0.0000 0.0000
vn 0.0000 0.0000 1.0000
vn 0.5373 0.8434 0.0000
vn 0.0000 0.9114 0.4114
vn 0.0000 0.9966 -0.0827
vn -0.0345 0.9994 0.0000
vn 0.0000 1.0000 0.0000
vn 0.0000 0.9114 -0.4114
vn -0.0000 0.9966 0.0827
vn 0.0000 0.9966 -0.0828
usemtl Material.163
s off
f 1/1/1 8/2/1 6/3/1
f 25/4/2 13/5/2 3/6/2
f 4/7/3 3/8/3 13/9/3
f 6/3/3 3/8/3 1/1/3
f 5/10/3 69/11/3 6/3/3
f 5/10/3 13/9/3 86/12/3
f 9/13/3 8/2/3 10/14/3
f 5/10/4 9/13/4 4/7/4
f 6/3/5 7/15/5 5/10/5
f 4/7/2 10/14/2 1/1/2
f 15/16/4 82/17/4 81/18/4
f 20/19/4 11/20/4 18/21/4
f 13/5/2 29/22/2 15/16/2
f 16/23/3 15/24/3 11/20/3
f 15/24/3 18/21/3 11/20/3
f 81/25/3 17/26/3 18/21/3
f 17/26/3 13/9/3 16/23/3
f 20/19/3 21/27/3 22/28/3
f 21/27/1 17/26/1 16/23/1
f 19/29/5 18/21/5 17/26/5
f 22/28/2 16/23/2 11/20/2
f 26/30/1 34/31/1 2/32/1
f 95/33/1 24/34/1 98/35/1
f 3/8/5 98/36/5 24/37/5
f 25/38/5 24/39/5 23/40/5
f 70/41/5 23/42/5 95/43/5
f 26/30/6 25/44/6 70/41/6
f 14/45/7 25/44/7 2/32/7
f 28/46/8 70/41/8 85/47/8
f 30/48/9 29/49/9 12/50/9
f 12/50/7 27/51/7 14/45/7
f 30/48/8 85/47/8 82/52/8
f 38/53/5 46/54/5 47/55/5
f 12/50/4 33/56/4 30/48/4
f 2/32/2 35/57/2 14/45/2
f 30/48/5 32/58/5 28/46/5
f 14/45/2 36/59/2 12/50/2
f 28/46/5 31/60/5 26/30/5
f 38/53/5 49/61/5 37/62/5
f 36/59/4 39/63/4 33/56/4
f 31/60/1 40/64/1 34/31/1
f 32/58/5 45/65/5 44/66/5
f 35/57/2 42/67/2 36/59/2
f 34/31/2 41/68/2 35/57/2
f 118/69/2 117/70/2 120/71/2
f 37/62/5 43/72/5 46/54/5
f 39/63/5 47/55/5 48/73/5
f 31/60/5 44/66/5 43/72/5
f 33/56/5 48/73/5 45/65/5
f 53/74/2 60/75/2 54/76/2
f 41/68/2 54/76/2 42/67/2
f 40/64/2 53/74/2 41/68/2
f 39/63/5 50/77/5 38/53/5
f 42/67/4 51/78/4 39/63/4
f 37/62/1 52/79/1 40/64/1
f 60/75/4 63/80/4 57/81/4
f 52/79/2 59/82/2 53/74/2
f 51/78/5 56/83/5 50/77/5
f 54/76/4 57/81/4 51/78/4
f 49/61/1 58/84/1 52/79/1
f 50/77/5 55/85/5 49/61/5
f 62/86/10 63/80/10 66/87/10
f 55/85/1 64/88/1 58/84/1
f 56/83/5 61/89/5 55/85/5
f 59/82/2 66/87/2 60/75/2
f 58/84/2 65/90/2 59/82/2
f 57/81/5 62/86/5 56/83/5
f 69/91/5 95/92/5 70/93/5
f 76/94/1 67/95/1 74/96/1
f 83/97/5 99/98/5 71/99/5
f 72/100/3 71/101/3 67/95/3
f 71/101/3 74/96/3 67/95/3
f 69/11/3 73/102/3 74/96/3
f 73/102/3 83/103/3 72/100/3
f 76/94/3 77/104/3 78/105/3
f 77/104/4 73/102/4 72/100/4
f 75/106/2 74/96/2 73/102/2
f 78/105/5 72/100/5 67/95/5
f 82/17/4 87/107/4 81/18/4
f 79/108/4 92/109/4 90/110/4
f 103/111/5 83/97/5 87/107/5
f 88/112/3 87/113/3 83/103/3
f 90/110/3 87/113/3 79/108/3
f 89/114/3 81/25/3 90/110/3
f 89/114/3 83/103/3 86/12/3
f 93/115/3 92/109/3 94/116/3
f 89/114/1 93/115/1 88/112/1
f 90/110/2 91/117/2 89/114/2
f 88/112/5 94/116/5 79/108/5
f 108/118/1 100/119/1 68/120/1
f 97/121/1 95/33/1 98/35/1
f 71/101/5 98/36/5 69/11/5
f 99/122/5 97/123/5 71/124/5
f 70/41/5 96/125/5 99/126/5
f 100/119/6 99/126/6 68/120/6
f 99/126/11 84/127/11 68/120/11
f 102/128/12 70/41/12 100/119/12
f 103/129/9 104/130/9 80/131/9
f 101/132/11 80/131/11 84/127/11
f 104/130/12 85/47/12 102/128/12
f 112/133/5 120/71/5 111/134/5
f 107/135/4 80/131/4 104/130/4
f 109/136/5 68/120/5 84/127/5
f 106/137/2 104/130/2 102/128/2
f 110/138/5 84/127/5 80/131/5
f 105/139/2 102/128/2 100/119/2
f 123/140/2 112/133/2 111/134/2
f 113/141/4 110/138/4 107/135/4
f 114/142/1 105/139/1 108/118/1
f 106/137/5 119/143/5 107/135/5
f 116/144/5 109/136/5 110/138/5
f 115/145/5 108/118/5 109/136/5
f 111/134/5 117/70/5 105/139/5
f 113/141/5 121/146/5 112/133/5
f 105/139/5 118/69/5 106/137/5
f 107/135/5 122/147/5 113/141/5
f 134/148/5 127/149/5 128/150/5
f 128/150/5 115/145/5 116/144/5
f 127/149/5 114/142/5 115/145/5
f 124/151/2 113/141/2 112/133/2
f 125/152/4 116/144/4 113/141/4
f 126/153/1 111/134/1 114/142/1
f 137/154/4 134/148/4 131/155/4
f 133/156/5 126/153/5 127/149/5
f 130/157/2 125/152/2 124/151/2
f 131/155/4 128/150/4 125/152/4
f 132/158/1 123/140/1 126/153/1
f 129/159/2 124/151/2 123/140/2
f 136/160/10 135/161/10 138/162/10
f 138/162/1 129/159/1 132/158/1
f 135/161/2 130/157/2 129/159/2
f 140/163/5 133/156/5 134/148/5
f 139/164/5 132/158/5 133/156/5
f 136/160/2 131/155/2 130/157/2
f 47/55/5 46/54/5 43/72/5
f 43/72/1 120/71/1 46/54/1
f 122/165/10 48/166/10 47/167/10
f 45/168/3 119/169/3 118/170/3
f 48/73/4 119/143/4 45/65/4
f 125/171/10 51/172/10 50/173/10
f 55/85/4 123/140/4 49/61/4
f 131/174/10 57/175/10 56/176/10
f 57/81/4 125/152/4 51/78/4
f 1/1/1 10/14/1 8/2/1
f 25/4/2 27/177/2 13/5/2
f 4/7/3 1/1/3 3/8/3
f 6/3/3 69/11/3 3/8/3
f 5/10/3 86/12/3 69/11/3
f 5/10/3 4/7/3 13/9/3
f 9/13/3 7/15/3 8/2/3
f 5/10/4 7/15/4 9/13/4
f 6/3/5 8/2/5 7/15/5
f 4/7/2 9/13/2 10/14/2
f 15/16/4 29/22/4 82/17/4
f 20/19/4 22/28/4 11/20/4
f 13/5/2 27/177/2 29/22/2
f 16/23/3 13/9/3 15/24/3
f 15/24/3 81/25/3 18/21/3
f 81/25/3 86/12/3 17/26/3
f 17/26/3 86/12/3 13/9/3
f 20/19/3 19/29/3 21/27/3
f 21/27/1 19/29/1 17/26/1
f 19/29/5 20/19/5 18/21/5
f 22/28/2 21/27/2 16/23/2
f 26/30/1 31/60/1 34/31/1
f 95/33/1 23/178/1 24/34/1
f 3/8/5 69/11/5 98/36/5
f 25/179/5 3/180/5 24/181/5
f 70/41/5 25/44/5 23/42/5
f 26/30/6 2/32/6 25/44/6
f 14/45/7 27/51/7 25/44/7
f 28/46/8 26/30/8 70/41/8
f 30/48/9 82/52/9 29/49/9
f 12/50/7 29/49/7 27/51/7
f 30/48/13 28/46/13 85/47/13
f 38/53/5 37/62/5 46/54/5
f 12/50/4 36/59/4 33/56/4
f 2/32/2 34/31/2 35/57/2
f 30/48/5 33/56/5 32/58/5
f 14/45/2 35/57/2 36/59/2
f 28/46/5 32/58/5 31/60/5
f 38/53/5 50/77/5 49/61/5
f 36/59/4 42/67/4 39/63/4
f 31/60/1 37/62/1 40/64/1
f 32/58/5 33/56/5 45/65/5
f 35/57/2 41/68/2 42/67/2
f 34/31/2 40/64/2 41/68/2
f 120/71/2 121/146/2 118/69/2
f 121/146/2 122/147/2 118/69/2
f 122/147/2 119/143/2 118/69/2
f 37/62/5 31/60/5 43/72/5
f 39/63/5 38/53/5 47/55/5
f 31/60/5 32/58/5 44/66/5
f 33/56/5 39/63/5 48/73/5
f 53/74/2 59/82/2 60/75/2
f 41/68/2 53/74/2 54/76/2
f 40/64/2 52/79/2 53/74/2
f 39/63/5 51/78/5 50/77/5
f 42/67/4 54/76/4 51/78/4
f 37/62/1 49/61/1 52/79/1
f 60/75/4 66/87/4 63/80/4
f 52/79/2 58/84/2 59/82/2
f 51/78/5 57/81/5 56/83/5
f 54/76/4 60/75/4 57/81/4
f 49/61/1 55/85/1 58/84/1
f 50/77/5 56/83/5 55/85/5
f 66/87/10 65/90/10 62/86/10
f 65/90/10 64/88/10 62/86/10
f 64/88/10 61/89/10 62/86/10
f 55/85/1 61/89/1 64/88/1
f 56/83/5 62/86/5 61/89/5
f 59/82/2 65/90/2 66/87/2
f 58/84/2 64/88/2 65/90/2
f 57/81/5 63/80/5 62/86/5
f 69/182/5 98/183/5 95/184/5
f 76/94/1 78/105/1 67/95/1
f 83/97/5 101/185/5 99/98/5
f 72/100/3 83/103/3 71/101/3
f 71/101/3 69/11/3 74/96/3
f 69/11/3 86/12/3 73/102/3
f 73/102/3 86/12/3 83/103/3
f 76/94/3 75/106/3 77/104/3
f 77/104/4 75/106/4 73/102/4
f 75/106/2 76/94/2 74/96/2
f 78/105/5 77/104/5 72/100/5
f 82/17/4 103/111/4 87/107/4
f 79/108/4 94/116/4 92/109/4
f 103/111/5 101/185/5 83/97/5
f 88/112/3 79/108/3 87/113/3
f 90/110/3 81/25/3 87/113/3
f 89/114/3 86/12/3 81/25/3
f 89/114/3 88/112/3 83/103/3
f 93/115/3 91/117/3 92/109/3
f 89/114/1 91/117/1 93/115/1
f 90/110/2 92/109/2 91/117/2
f 88/112/5 93/115/5 94/116/5
f 108/118/1 105/139/1 100/119/1
f 97/121/1 96/186/1 95/33/1
f 71/101/5 97/187/5 98/36/5
f 99/188/5 96/189/5 97/190/5
f 70/41/5 95/43/5 96/125/5
f 100/119/6 70/41/6 99/126/6
f 99/126/11 101/132/11 84/127/11
f 102/128/12 85/47/12 70/41/12
f 103/129/9 82/52/9 104/130/9
f 101/132/11 103/129/11 80/131/11
f 104/130/12 82/52/12 85/47/12
f 112/133/5 121/146/5 120/71/5
f 107/135/4 110/138/4 80/131/4
f 109/136/5 108/118/5 68/120/5
f 106/137/2 107/135/2 104/130/2
f 110/138/5 109/136/5 84/127/5
f 105/139/2 106/137/2 102/128/2
f 123/140/2 124/151/2 112/133/2
f 113/141/4 116/144/4 110/138/4
f 114/142/1 111/134/1 105/139/1
f 106/137/5 118/69/5 119/143/5
f 116/144/5 115/145/5 109/136/5
f 115/145/5 114/142/5 108/118/5
f 111/134/5 120/71/5 117/70/5
f 113/141/5 122/147/5 121/146/5
f 105/139/5 117/70/5 118/69/5
f 107/135/5 119/143/5 122/147/5
f 134/148/5 133/156/5 127/149/5
f 128/150/5 127/149/5 115/145/5
f 127/149/5 126/153/5 114/142/5
f 124/151/2 125/152/2 113/141/2
f 125/152/4 128/150/4 116/144/4
f 126/153/1 123/140/1 111/134/1
f 137/154/4 140/163/4 134/148/4
f 133/156/5 132/158/5 126/153/5
f 130/157/2 131/155/2 125/152/2
f 131/155/4 134/148/4 128/150/4
f 132/158/1 129/159/1 123/140/1
f 129/159/2 130/157/2 124/151/2
f 138/162/10 139/164/10 136/160/10
f 139/164/10 140/163/10 136/160/10
f 140/163/10 137/154/10 136/160/10
f 138/162/1 135/161/1 129/159/1
f 135/161/2 136/160/2 130/157/2
f 140/163/5 139/164/5 133/156/5
f 139/164/5 138/162/5 132/158/5
f 136/160/2 137/154/2 131/155/2
f 43/72/5 44/66/5 47/55/5
f 44/66/5 45/65/5 47/55/5
f 45/65/5 48/73/5 47/55/5
f 43/72/1 117/70/1 120/71/1
f 47/167/10 46/191/10 120/192/10
f 120/192/10 121/193/10 47/167/10
f 121/193/10 122/165/10 47/167/10
f 118/170/3 117/194/3 43/195/3
f 43/195/3 44/196/3 118/170/3
f 44/196/3 45/168/3 118/170/3
f 48/73/4 122/165/4 119/143/4
f 50/173/10 49/197/10 123/198/10
f 123/198/10 124/199/10 50/173/10
f 124/199/10 125/171/10 50/173/10
f 55/85/4 129/159/4 123/140/4
f 56/176/10 55/200/10 129/201/10
f 129/201/10 130/202/10 56/176/10
f 130/202/10 131/174/10 56/176/10
f 57/81/4 131/174/4 125/152/4
