# Blender v2.91.0 OBJ File: 'simpleWall.blend'
# www.blender.org
mtllib basicBooth.mtl
o Booth1_Cube.007
v 0.376806 0.213901 0.200834
v 0.376806 0.238901 0.200834
v 0.376806 0.213901 0.400834
v 0.376806 0.238901 0.400834
v -0.323194 0.213901 0.200834
v -0.323194 0.238901 0.200834
v -0.323194 0.213901 0.400834
v -0.323194 0.238901 0.400834
v 0.376806 0.213909 0.419916
v 0.376806 0.213909 0.394916
v 0.376806 0.482946 0.419916
v 0.376806 0.482946 0.394916
v -0.323194 0.213909 0.419916
v -0.323194 0.213909 0.394916
v -0.323194 0.482946 0.419916
v -0.323194 0.482946 0.394916
v 0.356806 0.039344 0.251084
v 0.356806 0.181535 0.251084
v 0.356806 0.039344 0.383084
v 0.356806 0.181535 0.383084
v -0.303194 0.039344 0.251084
v -0.303194 0.181535 0.251084
v -0.303194 0.039344 0.383084
v -0.303194 0.181535 0.383084
v 0.413443 0.192907 0.193892
v 0.413443 0.192907 0.440276
v -0.359832 0.192907 0.440276
v -0.359832 0.192907 0.193892
v 0.413443 0.219921 0.193892
v 0.413443 0.219921 0.440276
v -0.359832 0.219921 0.440276
v -0.359832 0.219921 0.193892
v -0.323194 0.213901 -0.200834
v -0.323194 0.238901 -0.200834
v -0.323194 0.213901 -0.400834
v -0.323194 0.238901 -0.400834
v 0.376806 0.213901 -0.200834
v 0.376806 0.238901 -0.200834
v 0.376806 0.213901 -0.400834
v 0.376806 0.238901 -0.400834
v -0.323194 0.213909 -0.419916
v -0.323194 0.213909 -0.394916
v -0.323194 0.482946 -0.419916
v -0.323194 0.482946 -0.394916
v 0.376806 0.213909 -0.419916
v 0.376806 0.213909 -0.394916
v 0.376806 0.482946 -0.419916
v 0.376806 0.482946 -0.394916
v -0.303194 0.039344 -0.251084
v -0.303194 0.181535 -0.251084
v -0.303194 0.039344 -0.383084
v -0.303194 0.181535 -0.383084
v 0.356806 0.039344 -0.251084
v 0.356806 0.181535 -0.251084
v 0.356806 0.039344 -0.383084
v 0.356806 0.181535 -0.383084
v -0.359831 0.192907 -0.193892
v -0.359831 0.192907 -0.440276
v 0.413444 0.192907 -0.440276
v 0.413444 0.192907 -0.193892
v -0.359831 0.219921 -0.193892
v -0.359831 0.219921 -0.440276
v 0.413444 0.219921 -0.440276
v 0.413444 0.219921 -0.193892
v -0.025000 0.014090 0.025000
v -0.025000 0.339753 0.025000
v -0.025000 0.014090 -0.025000
v -0.025000 0.339753 -0.025000
v 0.025000 0.014090 0.025000
v 0.025000 0.339753 0.025000
v 0.025000 0.014090 -0.025000
v 0.025000 0.339753 -0.025000
v -0.424612 0.353122 0.219447
v -0.424612 0.353122 -0.219447
v 0.424612 0.353122 -0.219447
v 0.424612 0.353122 0.219447
v -0.352551 0.380082 0.147386
v -0.352551 0.380082 -0.147386
v 0.352551 0.380082 -0.147386
v 0.352551 0.380082 0.147386
v -0.424612 0.380082 0.219447
v -0.424612 0.380082 -0.219447
v 0.424612 0.380082 -0.219447
v 0.424612 0.380082 0.219447
v -0.356258 0.380082 0.151093
v -0.356258 0.380082 -0.151093
v 0.356258 0.380082 -0.151093
v 0.356258 0.380082 0.151093
v -0.352551 0.386642 0.147386
v -0.352551 0.386642 -0.147386
v 0.352551 0.386642 -0.147386
v 0.352551 0.386642 0.147386
vt 0.625000 0.000000
vt 0.375000 0.250000
vt 0.375000 0.000000
vt 0.625000 0.250000
vt 0.375000 0.500000
vt 0.625000 0.500000
vt 0.375000 0.750000
vt 0.625000 0.750000
vt 0.375000 1.000000
vt 0.125000 0.750000
vt 0.125000 0.500000
vt 0.875000 0.500000
vt 0.625000 0.000000
vt 0.375000 0.250000
vt 0.375000 0.000000
vt 0.625000 0.250000
vt 0.375000 0.500000
vt 0.625000 0.500000
vt 0.375000 0.750000
vt 0.625000 0.750000
vt 0.375000 1.000000
vt 0.125000 0.750000
vt 0.125000 0.500000
vt 0.875000 0.500000
vt 0.625000 0.000000
vt 0.375000 0.250000
vt 0.375000 0.000000
vt 0.625000 0.250000
vt 0.375000 0.500000
vt 0.625000 0.500000
vt 0.375000 0.750000
vt 0.625000 0.750000
vt 0.375000 1.000000
vt 0.875000 0.750000
vt 0.625000 0.000000
vt 0.375000 0.250000
vt 0.375000 0.000000
vt 0.625000 0.250000
vt 0.375000 0.500000
vt 0.625000 0.500000
vt 0.375000 0.750000
vt 0.625000 1.000000
vt 0.375000 1.000000
vt 0.125000 0.750000
vt 0.125000 0.500000
vt 0.875000 0.500000
vt 0.625000 0.750000
vt 0.646214 0.708953
vt 0.853786 0.708953
vt 0.853786 0.708953
vt 0.625000 0.750000
vt 0.625000 1.000000
vt 0.625000 1.000000
vt 0.645122 0.711065
vt 0.625000 1.000000
vt 0.875000 0.750000
vt 0.625000 1.000000
vt 0.875000 0.750000
vt 0.625000 1.000000
vt 0.875000 0.500000
vt 0.875000 0.750000
vt 0.646214 0.708953
vt 0.625000 0.750000
vt 0.854878 0.711065
vt 0.625000 0.000000
vt 0.375000 0.250000
vt 0.375000 0.000000
vt 0.625000 0.250000
vt 0.375000 0.500000
vt 0.625000 0.500000
vt 0.375000 0.750000
vt 0.625000 0.750000
vt 0.375000 1.000000
vt 0.125000 0.750000
vt 0.125000 0.500000
vt 0.625000 0.750000
vt 0.625000 0.250000
vt 0.625000 1.000000
vt 0.625000 1.000000
vt 0.625000 0.500000
vt 0.625000 0.000000
vt 0.375000 0.250000
vt 0.375000 0.000000
vt 0.625000 0.250000
vt 0.375000 0.500000
vt 0.625000 0.500000
vt 0.375000 0.750000
vt 0.625000 0.750000
vt 0.375000 1.000000
vt 0.125000 0.750000
vt 0.125000 0.500000
vt 0.625000 0.000000
vt 0.625000 1.000000
vt 0.625000 0.750000
vt 0.875000 0.500000
vt 0.625000 0.500000
vt 0.625000 0.250000
vt 0.625000 1.000000
vt 0.625000 0.750000
vt 0.625000 0.500000
vt 0.625000 0.750000
vt 0.625000 0.250000
vt 0.625000 1.000000
vt 0.875000 0.500000
vt 0.625000 0.500000
vt 0.625000 0.000000
vt 0.625000 0.250000
vt 0.625000 1.000000
vt 0.875000 0.750000
vt 0.625000 0.000000
vt 0.875000 0.750000
vt 0.625000 0.000000
vt 0.125000 0.750000
vt 0.125000 0.500000
vt 0.625000 0.000000
vt 0.375000 0.250000
vt 0.375000 0.000000
vt 0.625000 0.250000
vt 0.375000 0.500000
vt 0.625000 0.500000
vt 0.375000 0.750000
vt 0.625000 0.750000
vt 0.375000 1.000000
vt 0.125000 0.750000
vt 0.125000 0.500000
vt 0.625000 0.000000
vt 0.625000 0.250000
vt 0.625000 0.250000
vt 0.625000 1.000000
vt 0.625000 0.500000
vt 0.625000 0.500000
vt 0.854878 0.538935
vt 0.875000 0.750000
vt 0.875000 0.500000
vt 0.645122 0.538935
vt 0.853786 0.541047
vt 0.646214 0.541047
vt 0.625000 0.000000
vt 0.646214 0.541047
vt 0.853786 0.541047
vn 1.0000 0.0000 0.0000
vn 0.0000 0.0000 1.0000
vn -1.0000 0.0000 0.0000
vn -0.0000 0.0000 -1.0000
vn 0.0000 -1.0000 0.0000
vn 0.0000 1.0000 0.0000
vn -0.1969 -0.9804 0.0000
vn 0.1969 -0.9804 0.0000
vn -0.0000 -0.9808 -0.1950
vn 0.0000 -0.9808 0.1950
vn 0.0334 -0.9994 0.0000
vn -0.0334 -0.9994 0.0000
vn 0.0000 -0.9976 0.0686
vn -0.0000 -0.9976 -0.0686
usemtl BoothBack
s off
f 2/1/1 3/2/1 1/3/1
f 4/4/2 7/5/2 3/2/2
f 8/6/3 5/7/3 7/5/3
f 6/8/4 1/9/4 5/7/4
f 7/5/5 1/10/5 3/11/5
f 4/12/6 6/8/6 8/6/6
f 10/13/1 11/14/1 9/15/1
f 12/16/6 15/17/6 11/14/6
f 16/18/3 13/19/3 15/17/3
f 14/20/5 9/21/5 13/19/5
f 15/17/2 9/22/2 11/23/2
f 12/24/4 14/20/4 16/18/4
f 34/25/3 35/26/3 33/27/3
f 36/28/4 39/29/4 35/26/4
f 40/30/1 37/31/1 39/29/1
f 38/32/2 33/33/2 37/31/2
f 40/30/6 34/34/6 38/32/6
f 42/35/3 43/36/3 41/37/3
f 44/38/6 47/39/6 43/36/6
f 48/40/1 45/41/1 47/39/1
f 45/41/5 42/42/5 41/43/5
f 47/39/4 41/44/4 43/45/4
f 44/46/2 46/47/2 48/40/2
f 80/48/2 89/49/2 77/50/2
f 76/51/2 81/52/2 73/53/2
f 77/50/6 88/54/6 80/48/6
f 2/1/1 4/4/1 3/2/1
f 4/4/2 8/6/2 7/5/2
f 8/6/3 6/8/3 5/7/3
f 6/8/4 2/55/4 1/9/4
f 7/5/5 5/7/5 1/10/5
f 4/12/6 2/56/6 6/8/6
f 10/13/1 12/16/1 11/14/1
f 12/16/6 16/18/6 15/17/6
f 16/18/3 14/20/3 13/19/3
f 14/20/5 10/57/5 9/21/5
f 15/17/2 13/19/2 9/22/2
f 12/24/4 10/58/4 14/20/4
f 34/25/3 36/28/3 35/26/3
f 36/28/4 40/30/4 39/29/4
f 40/30/1 38/32/1 37/31/1
f 38/32/2 34/59/2 33/33/2
f 40/30/6 36/60/6 34/34/6
f 42/35/3 44/38/3 43/36/3
f 44/38/6 48/40/6 47/39/6
f 48/40/1 46/47/1 45/41/1
f 45/41/5 46/47/5 42/42/5
f 47/39/4 45/41/4 41/44/4
f 44/46/2 42/61/2 46/47/2
f 80/48/2 92/62/2 89/49/2
f 76/51/2 84/63/2 81/52/2
f 77/50/6 85/64/6 88/54/6
usemtl BoothBottom
f 18/65/1 19/66/1 17/67/1
f 20/68/2 23/69/2 19/66/2
f 24/70/3 21/71/3 23/69/3
f 22/72/4 17/73/4 21/71/4
f 23/69/5 17/74/5 19/75/5
f 24/70/7 28/76/7 22/72/7
f 18/65/8 26/77/8 20/68/8
f 22/72/9 25/78/9 18/79/9
f 20/68/10 27/80/10 24/70/10
f 50/81/3 51/82/3 49/83/3
f 52/84/4 55/85/4 51/82/4
f 56/86/1 53/87/1 55/85/1
f 54/88/2 49/89/2 53/87/2
f 55/85/5 49/90/5 51/91/5
f 18/65/1 20/68/1 19/66/1
f 20/68/2 24/70/2 23/69/2
f 24/70/3 22/72/3 21/71/3
f 22/72/4 18/79/4 17/73/4
f 23/69/5 21/71/5 17/74/5
f 24/70/7 27/80/7 28/76/7
f 18/65/8 25/92/8 26/77/8
f 22/72/9 28/76/9 25/78/9
f 20/68/10 26/77/10 27/80/10
f 50/81/3 52/84/3 51/82/3
f 52/84/4 56/86/4 55/85/4
f 56/86/1 54/88/1 53/87/1
f 54/88/2 50/93/2 49/89/2
f 55/85/5 53/87/5 49/90/5
usemtl BoothWood
f 27/80/3 32/94/3 28/76/3
f 30/95/6 32/94/6 31/96/6
f 25/92/1 30/97/1 26/77/1
f 28/76/4 29/98/4 25/78/4
f 26/77/2 31/96/2 27/80/2
f 56/86/8 60/99/8 54/88/8
f 59/100/1 64/101/1 60/99/1
f 50/81/7 58/102/7 52/84/7
f 54/88/10 57/103/10 50/93/10
f 52/84/9 59/100/9 56/86/9
f 62/104/6 64/101/6 63/105/6
f 57/106/3 62/107/3 58/102/3
f 60/99/2 61/108/2 57/103/2
f 58/102/4 63/105/4 59/100/4
f 27/80/3 31/96/3 32/94/3
f 30/95/6 29/109/6 32/94/6
f 25/92/1 29/110/1 30/97/1
f 28/76/4 32/94/4 29/98/4
f 26/77/2 30/97/2 31/96/2
f 56/86/8 59/100/8 60/99/8
f 59/100/1 63/105/1 64/101/1
f 50/81/7 57/106/7 58/102/7
f 54/88/10 60/99/10 57/103/10
f 52/84/9 58/102/9 59/100/9
f 62/104/6 61/111/6 64/101/6
f 57/106/3 61/112/3 62/107/3
f 60/99/2 64/101/2 61/108/2
f 58/102/4 62/107/4 63/105/4
usemtl Unused1
f 39/29/5 33/113/5 35/114/5
f 39/29/5 37/31/5 33/113/5
usemtl TableBottom
f 66/115/3 67/116/3 65/117/3
f 68/118/4 71/119/4 67/116/4
f 72/120/1 69/121/1 71/119/1
f 70/122/2 65/123/2 69/121/2
f 71/119/5 65/124/5 67/125/5
f 72/120/11 76/51/11 70/122/11
f 73/126/3 82/127/3 74/128/3
f 66/115/12 74/128/12 68/118/12
f 70/122/13 73/53/13 66/129/13
f 68/118/14 75/130/14 72/120/14
f 74/128/4 83/131/4 75/130/4
f 75/130/1 84/63/1 76/51/1
f 86/132/6 81/133/6 85/64/6
f 86/132/6 83/131/6 82/134/6
f 88/54/6 83/131/6 87/135/6
f 85/64/6 84/63/6 88/54/6
f 78/136/6 85/64/6 77/50/6
f 79/137/6 86/132/6 78/136/6
f 80/48/6 87/135/6 79/137/6
f 66/115/3 68/118/3 67/116/3
f 68/118/4 72/120/4 71/119/4
f 72/120/1 70/122/1 69/121/1
f 70/122/2 66/129/2 65/123/2
f 71/119/5 69/121/5 65/124/5
f 72/120/11 75/130/11 76/51/11
f 73/126/3 81/138/3 82/127/3
f 66/115/12 73/126/12 74/128/12
f 70/122/13 76/51/13 73/53/13
f 68/118/14 74/128/14 75/130/14
f 74/128/4 82/127/4 83/131/4
f 75/130/1 83/131/1 84/63/1
f 86/132/6 82/134/6 81/133/6
f 86/132/6 87/135/6 83/131/6
f 88/54/6 84/63/6 83/131/6
f 85/64/6 81/133/6 84/63/6
f 78/136/6 86/132/6 85/64/6
f 79/137/6 87/135/6 86/132/6
f 80/48/6 88/54/6 87/135/6
usemtl TableCenter
f 91/139/6 89/49/6 92/62/6
f 78/136/4 91/139/4 79/137/4
f 79/137/1 92/62/1 80/48/1
f 77/50/3 90/140/3 78/136/3
f 91/139/6 90/140/6 89/49/6
f 78/136/4 90/140/4 91/139/4
f 79/137/1 91/139/1 92/62/1
f 77/50/3 89/49/3 90/140/3
