# Blender v2.91.0 OBJ File: 'simpleWall.blend'
# www.blender.org
mtllib simpleRoof.mtl
o Cube.007_Cube.043
v -0.496410 0.502738 0.490255
v -0.479796 0.538368 0.490255
v -0.496410 0.502738 -0.490255
v -0.479796 0.538368 -0.490255
v 0.470300 0.051954 0.490255
v 0.486914 0.087584 0.490255
v 0.470300 0.051954 -0.490255
v 0.486914 0.087584 -0.490255
v 0.496864 0.082944 -0.490255
v 0.480249 0.047314 -0.490255
v 0.480249 0.047314 0.490255
v 0.496864 0.082944 0.490255
v -0.479796 0.538368 -0.500693
v -0.496410 0.502738 -0.500693
v 0.470300 0.051954 -0.500693
v 0.486914 0.087584 -0.500693
v 0.496864 0.082944 -0.500693
v 0.480249 0.047314 -0.500693
v -0.506157 0.507283 -0.490255
v -0.506157 0.507283 0.490255
v -0.489543 0.542913 0.490255
v -0.489543 0.542913 -0.490255
v -0.489543 0.542913 -0.500693
v -0.506157 0.507283 -0.500693
v -0.496410 0.502738 0.500475
v -0.479796 0.538368 0.500475
v -0.506157 0.507283 0.500475
v 0.486914 0.087584 0.500475
v 0.470300 0.051954 0.500475
v 0.496864 0.082944 0.500475
v 0.480249 0.047314 0.500475
v -0.489543 0.542913 0.500475
v -0.489543 0.542913 0.500475
v -0.489543 0.542913 0.490255
v -0.479796 0.538368 0.490255
v -0.479796 0.538368 -0.490255
v 0.486914 0.087584 -0.490255
v 0.486914 0.087584 0.490255
v 0.496864 0.082944 -0.490255
v 0.496864 0.082944 0.490255
v -0.479796 0.538368 -0.500693
v 0.486914 0.087584 -0.500693
v 0.496864 0.082944 -0.500693
v -0.489543 0.542913 -0.490255
v -0.489543 0.542913 -0.500693
v 0.486914 0.087584 0.500475
v -0.479796 0.538368 0.500475
v 0.496864 0.082944 0.500475
v -0.496410 0.502738 -0.490255
v -0.496410 0.502738 0.490255
v 0.470300 0.051954 -0.490255
v 0.470300 0.051954 0.490255
v -0.506157 0.507283 0.490255
v -0.506157 0.507283 0.500475
v 0.480249 0.047314 0.490255
v 0.480249 0.047314 -0.490255
v 0.470300 0.051954 -0.500693
v -0.496410 0.502738 -0.500693
v 0.480249 0.047314 -0.500693
v -0.506157 0.507283 -0.490255
v -0.506157 0.507283 -0.500693
v -0.496410 0.502738 0.500475
v 0.470300 0.051954 0.500475
v 0.480249 0.047314 0.500475
vt 0.375000 0.750000
vt 0.125000 0.750000
vt 0.375000 0.500000
vt 0.875000 0.750000
vt 0.875000 0.750000
vt 0.875000 0.750000
vt 0.875000 0.500000
vt 0.875000 0.750000
vt 0.875000 0.500000
vt 0.625000 0.500000
vt 0.625000 0.500000
vt 0.625000 0.750000
vt 0.625000 0.750000
vt 0.875000 0.750000
vt 0.625000 0.500000
vt 0.625000 0.750000
vt 0.625000 0.500000
vt 0.875000 0.500000
vt 0.625000 0.500000
vt 0.875000 0.500000
vt 0.625000 0.500000
vt 0.625000 0.500000
vt 0.625000 0.500000
vt 0.875000 0.750000
vt 0.875000 0.500000
vt 0.875000 0.500000
vt 0.875000 0.500000
vt 0.875000 0.500000
vt 0.625000 0.750000
vt 0.875000 0.750000
vt 0.625000 0.750000
vt 0.625000 0.750000
vt 0.625000 0.750000
vt 0.875000 0.750000
vt 0.625000 0.750000
vt 0.125000 0.500000
vt 0.125000 0.750000
vt 0.125000 0.500000
vt 0.375000 0.500000
vt 0.125000 0.750000
vt 0.125000 0.750000
vt 0.125000 0.750000
vt 0.375000 0.750000
vt 0.375000 0.750000
vt 0.375000 0.500000
vt 0.375000 0.750000
vt 0.375000 0.500000
vt 0.125000 0.500000
vt 0.375000 0.500000
vt 0.375000 0.500000
vt 0.375000 0.500000
vt 0.375000 0.500000
vt 0.125000 0.500000
vt 0.125000 0.500000
vt 0.125000 0.500000
vt 0.125000 0.500000
vt 0.125000 0.500000
vt 0.125000 0.750000
vt 0.125000 0.750000
vt 0.125000 0.750000
vt 0.375000 0.750000
vt 0.375000 0.750000
vt 0.375000 0.750000
vt 0.375000 0.750000
vt 0.375000 0.250000
vt 0.625000 0.250000
vt 0.625000 0.250000
vt 0.625000 0.000000
vt 0.375000 0.250000
vt 0.375000 0.000000
vt 0.625000 0.250000
vt 0.375000 0.250000
vt 0.625000 0.000000
vt 0.375000 1.000000
vt 0.625000 1.000000
vt 0.375000 1.000000
vt 0.375000 0.000000
vt 0.625000 1.000000
vn -0.4226 -0.9063 0.0000
vn 0.0000 0.0000 1.0000
vn 0.4226 0.9063 0.0000
vn 0.0000 0.0000 -1.0000
vn 0.9063 -0.4226 0.0000
vn -0.9063 0.4226 0.0000
usemtl Material.161
s off
f 52/1/1 50/2/1 51/3/1
f 32/4/2 34/5/2 33/6/2
f 4/7/2 35/8/2 36/9/2
f 8/10/2 36/9/2 37/11/2
f 6/12/2 37/11/2 38/13/2
f 2/14/2 38/13/2 35/8/2
f 9/15/2 40/16/2 39/17/2
f 13/18/2 42/19/2 41/20/2
f 16/21/2 43/22/2 42/19/2
f 17/23/2 39/17/2 43/22/2
f 21/24/2 44/25/2 34/5/2
f 22/26/2 45/27/2 44/25/2
f 23/28/2 41/20/2 45/27/2
f 28/29/2 47/30/2 46/31/2
f 30/32/2 46/31/2 48/33/2
f 26/34/2 33/6/2 47/30/2
f 12/35/2 48/33/2 40/16/2
f 49/36/1 51/3/1 50/2/1
f 38/13/3 37/11/3 35/8/3
f 35/8/3 37/11/3 36/9/3
f 1/37/2 49/36/2 50/2/2
f 3/38/2 51/3/2 49/36/2
f 7/39/2 52/1/2 51/3/2
f 53/40/2 54/41/2 20/42/2
f 5/43/2 50/2/2 52/1/2
f 11/44/2 56/45/2 55/46/2
f 57/47/2 58/48/2 15/49/2
f 18/50/2 15/49/2 59/51/2
f 10/52/2 59/51/2 56/45/2
f 19/53/2 20/42/2 60/54/2
f 24/55/2 60/54/2 61/56/2
f 14/57/2 61/56/2 58/48/2
f 27/58/2 62/59/2 54/41/2
f 25/60/2 63/61/2 62/59/2
f 29/62/2 64/63/2 63/61/2
f 31/64/2 55/46/2 64/63/2
f 32/4/2 21/24/2 34/5/2
f 4/7/2 2/14/2 35/8/2
f 8/10/2 4/7/2 36/9/2
f 6/12/2 8/10/2 37/11/2
f 2/14/2 6/12/2 38/13/2
f 9/15/2 12/35/2 40/16/2
f 13/18/2 16/21/2 42/19/2
f 16/21/2 17/23/2 43/22/2
f 17/23/2 9/15/2 39/17/2
f 21/24/2 22/26/2 44/25/2
f 22/26/2 23/28/2 45/27/2
f 23/28/2 13/18/2 41/20/2
f 28/29/2 26/34/2 47/30/2
f 30/32/2 28/29/2 46/31/2
f 26/34/2 32/4/2 33/6/2
f 12/35/2 30/32/2 48/33/2
f 1/37/2 3/38/2 49/36/2
f 3/38/2 7/39/2 51/3/2
f 7/39/2 5/43/2 52/1/2
f 53/40/2 27/58/2 54/41/2
f 5/43/2 1/37/2 50/2/2
f 11/44/2 10/52/2 56/45/2
f 57/47/2 14/57/2 58/48/2
f 18/50/2 57/47/2 15/49/2
f 10/52/2 18/50/2 59/51/2
f 19/53/2 53/40/2 20/42/2
f 24/55/2 19/53/2 60/54/2
f 14/57/2 24/55/2 61/56/2
f 27/58/2 25/60/2 62/59/2
f 25/60/2 29/62/2 63/61/2
f 29/62/2 31/64/2 64/63/2
f 31/64/2 11/44/2 55/46/2
usemtl Material.160
f 58/65/4 45/66/4 41/67/4
f 8/10/3 13/18/3 4/7/3
f 11/44/1 29/62/1 5/43/1
f 2/14/3 28/29/3 6/12/3
f 39/17/5 55/46/5 56/45/5
f 7/39/1 11/44/1 5/43/1
f 6/12/3 9/15/3 8/10/3
f 7/39/1 18/50/1 10/52/1
f 41/67/4 15/49/4 58/65/4
f 42/19/4 59/51/4 15/49/4
f 1/37/1 19/53/1 3/38/1
f 56/45/5 43/22/5 39/17/5
f 9/15/3 16/21/3 8/10/3
f 3/38/1 57/47/1 7/39/1
f 34/68/6 60/69/6 20/70/6
f 44/71/6 61/72/6 60/69/6
f 13/18/3 22/26/3 4/7/3
f 20/70/6 33/73/6 34/68/6
f 3/38/1 24/55/1 14/57/1
f 4/7/3 21/24/3 2/14/3
f 63/61/2 48/33/2 46/31/2
f 46/31/2 62/74/2 63/61/2
f 47/75/2 54/76/2 62/74/2
f 1/37/1 27/58/1 53/40/1
f 21/24/3 26/34/3 2/14/3
f 5/43/1 25/60/1 1/37/1
f 6/12/3 30/32/3 12/35/3
f 40/16/5 64/63/5 55/46/5
f 58/65/4 61/72/4 45/66/4
f 8/10/3 16/21/3 13/18/3
f 11/44/1 31/64/1 29/62/1
f 2/14/3 26/34/3 28/29/3
f 39/17/5 40/16/5 55/46/5
f 7/39/1 10/52/1 11/44/1
f 6/12/3 12/35/3 9/15/3
f 7/39/1 57/47/1 18/50/1
f 41/67/4 42/19/4 15/49/4
f 42/19/4 43/22/4 59/51/4
f 1/37/1 53/40/1 19/53/1
f 56/45/5 59/51/5 43/22/5
f 9/15/3 17/23/3 16/21/3
f 3/38/1 14/57/1 57/47/1
f 34/68/6 44/71/6 60/69/6
f 44/71/6 45/66/6 61/72/6
f 13/18/3 23/28/3 22/26/3
f 20/70/6 54/77/6 33/73/6
f 3/38/1 19/53/1 24/55/1
f 4/7/3 22/26/3 21/24/3
f 63/61/2 64/63/2 48/33/2
f 46/31/2 47/75/2 62/74/2
f 47/75/2 33/78/2 54/76/2
f 1/37/1 25/60/1 27/58/1
f 21/24/3 32/4/3 26/34/3
f 5/43/1 29/62/1 25/60/1
f 6/12/3 28/29/3 30/32/3
f 40/16/5 48/33/5 64/63/5
