# Blender v2.91.0 OBJ File: 'simpleWall.blend'
# www.blender.org
mtllib chef1.mtl
o Person.002_Cube.015
v -0.078421 -0.003843 0.078422
v -0.078421 0.325052 0.078422
v -0.078421 -0.003843 -0.078422
v -0.078421 0.325052 -0.078422
v 0.078423 -0.004132 0.078422
v 0.078423 -0.004132 -0.078422
v -0.078422 0.504469 0.078422
v -0.078422 0.504469 -0.078422
v -0.078422 0.521119 0.078422
v -0.078422 0.521119 -0.078422
v 0.078422 0.520402 -0.078422
v 0.078422 0.520402 0.078422
v 0.078423 0.324318 -0.078422
v 0.078423 0.324318 0.078422
v 0.078423 0.503735 -0.078422
v 0.078423 0.503735 0.078422
v -0.078422 0.321910 0.078422
v -0.078424 0.315495 -0.078422
v 0.078420 0.314761 -0.078422
v 0.078420 0.314761 0.078422
v -0.078422 0.504448 0.078422
v -0.078422 0.504448 -0.078422
v 0.078422 0.503714 -0.078422
v 0.078422 0.503714 0.078422
v -0.078422 -0.010258 -0.078422
v -0.078422 -0.010258 0.078422
v -0.078424 0.315495 0.078422
v -0.078422 0.321910 -0.078422
v 0.078422 -0.010547 -0.078422
v 0.078422 0.321176 -0.078422
v 0.078422 -0.010547 0.078422
v 0.078422 0.321176 0.078422
v -0.078423 0.501306 0.078422
v -0.078423 0.501306 -0.078422
v 0.078421 0.500572 -0.078422
v 0.078421 0.500572 0.078422
v -0.085711 0.520883 0.085704
v -0.085711 0.520883 -0.085704
v 0.085697 0.520099 -0.085704
v 0.085697 0.520099 0.085704
v -0.084838 0.710491 0.085704
v -0.084838 0.710491 -0.085704
v 0.086570 0.709706 -0.085704
v 0.086570 0.709706 0.085704
v -0.085718 0.518092 0.085704
v -0.085718 0.518092 -0.085704
v 0.085690 0.517308 -0.085704
v 0.085690 0.517308 0.085704
vt 0.620172 0.000000
vt 0.379828 0.250001
vt 0.379828 0.000000
vt 0.620165 0.500000
vt 0.379835 0.500000
vt 0.379835 0.749999
vt 0.620165 0.750003
vt 0.379828 0.999999
vt 0.375000 0.500000
vt 0.125000 0.750000
vt 0.125000 0.500000
vt 0.375000 0.000000
vt 0.625000 0.250000
vt 0.620172 0.249997
vt 0.375000 0.250000
vt 0.625000 0.500000
vt 0.625000 0.750000
vt 0.375000 1.000000
vt 0.375000 0.750000
vt 0.620171 1.000003
vt 0.625000 1.000000
vt 0.625000 0.500000
vt 0.625000 0.250000
vt 0.625000 0.500000
vt 0.875000 0.500000
vt 0.625000 0.750000
vt 0.625000 0.750008
vt 0.625000 0.000000
vt 0.625000 0.249992
vt 0.625000 1.000000
vt 0.625000 1.000008
vt 0.625000 0.000000
vt 0.625000 0.500000
vt 0.625000 0.250000
vt 0.625000 0.750000
vt 0.625000 0.000000
vt 0.875000 0.750000
vt 0.625000 0.000000
vt 0.625000 1.000000
vt 0.625000 0.250001
vt 0.625000 0.500000
vt 0.625000 0.500000
vt 0.625000 0.000000
vt 0.625000 0.249999
vt 0.625000 0.999999
vt 0.625000 0.750001
vt 0.625000 1.000001
vt 0.625000 0.749999
vt 0.625000 0.250001
vt 0.625000 0.000000
vt 0.625000 0.000000
vt 0.625000 0.500000
vt 0.625000 0.749999
vt 0.625000 0.999999
vt 0.625000 0.500000
vt 0.625000 0.750000
vt 0.625000 0.750000
vt 0.625000 0.000000
vt 0.625000 0.250000
vt 0.625000 0.250000
vt 0.625000 1.000000
vt 0.625000 1.000000
vt 0.625000 0.500000
vt 0.625000 0.000000
vn -1.0000 -0.0000 0.0000
vn 0.0000 0.0000 -1.0000
vn 1.0000 0.0000 0.0000
vn 0.0000 0.0000 1.0000
vn -0.0018 -1.0000 0.0000
vn -1.0000 0.0001 0.0000
vn -1.0000 0.0003 0.0000
vn 1.0000 -0.0001 0.0000
vn 1.0000 -0.0003 0.0000
vn 0.0046 1.0000 0.0000
vn 1.0000 -0.0046 0.0000
vn -1.0000 0.0046 0.0000
vn -1.0000 0.0025 0.0000
vn 1.0000 -0.0025 0.0000
vn -1.0000 0.0004 0.0000
vn 1.0000 -0.0004 0.0000
vn 0.9998 -0.0197 0.0000
vn -0.9998 0.0196 0.0000
vn -0.0042 -0.9219 -0.3875
vn 0.3832 -0.9236 0.0000
vn -0.3917 -0.9201 0.0000
vn -0.0042 -0.9219 0.3875
usemtl Material.032
s off
f 27/1/1 3/2/1 1/3/1
f 3/2/2 19/4/2 6/5/2
f 19/4/3 5/6/3 6/5/3
f 20/7/4 1/8/4 5/6/4
f 29/9/5 26/10/5 25/11/5
f 3/2/6 26/12/6 1/3/6
f 27/1/7 28/13/7 18/14/7
f 6/5/2 25/15/2 3/2/2
f 18/14/2 30/16/2 19/4/2
f 5/6/8 29/9/8 6/5/8
f 19/4/9 32/17/9 20/7/9
f 5/6/4 26/18/4 31/19/4
f 27/20/4 32/17/4 17/21/4
f 39/22/2 42/23/2 43/24/2
f 42/25/10 44/26/10 43/24/10
f 39/22/11 44/26/11 40/27/11
f 37/28/12 42/23/12 38/29/12
f 40/27/4 41/30/4 37/31/4
f 38/29/13 45/32/13 37/28/13
f 38/29/2 47/33/2 46/34/2
f 40/27/14 47/33/14 39/22/14
f 37/31/4 48/35/4 40/27/4
f 27/1/1 18/14/1 3/2/1
f 3/2/2 18/14/2 19/4/2
f 19/4/3 20/7/3 5/6/3
f 20/7/4 27/20/4 1/8/4
f 29/9/5 31/19/5 26/10/5
f 3/2/6 25/15/6 26/12/6
f 27/1/7 17/36/7 28/13/7
f 6/5/2 29/9/2 25/15/2
f 18/14/2 28/13/2 30/16/2
f 5/6/8 31/19/8 29/9/8
f 19/4/9 30/16/9 32/17/9
f 5/6/4 1/8/4 26/18/4
f 27/20/4 20/7/4 32/17/4
f 39/22/2 38/29/2 42/23/2
f 42/25/10 41/37/10 44/26/10
f 39/22/11 43/24/11 44/26/11
f 37/28/12 41/38/12 42/23/12
f 40/27/4 44/26/4 41/30/4
f 38/29/13 46/34/13 45/32/13
f 38/29/2 39/22/2 47/33/2
f 40/27/14 48/35/14 47/33/14
f 37/31/4 45/39/4 48/35/4
usemtl Material.031
f 4/40/2 35/41/2 13/42/2
f 2/43/1 34/44/1 4/40/1
f 2/45/4 36/46/4 33/47/4
f 13/42/3 36/46/3 14/48/3
f 4/40/7 17/36/7 2/43/7
f 13/42/2 28/13/2 4/40/2
f 14/48/9 30/16/9 13/42/9
f 14/48/4 17/21/4 32/17/4
f 8/49/15 33/50/15 7/51/15
f 15/52/2 34/44/2 8/49/2
f 16/53/16 35/41/16 15/52/16
f 16/53/4 33/47/4 36/46/4
f 4/40/2 34/44/2 35/41/2
f 2/43/1 33/50/1 34/44/1
f 2/45/4 14/48/4 36/46/4
f 13/42/3 35/41/3 36/46/3
f 4/40/7 28/13/7 17/36/7
f 13/42/2 30/16/2 28/13/2
f 14/48/9 32/17/9 30/16/9
f 14/48/4 2/45/4 17/21/4
f 8/49/15 34/44/15 33/50/15
f 15/52/2 35/41/2 34/44/2
f 16/53/16 36/46/16 35/41/16
f 16/53/4 7/54/4 33/47/4
usemtl Material.030
f 23/55/3 12/56/3 24/57/3
f 21/58/1 10/59/1 22/60/1
f 21/61/4 12/56/4 9/62/4
f 22/60/2 11/63/2 23/55/2
f 7/51/17 22/60/17 8/49/17
f 8/49/4 23/55/4 15/52/4
f 15/52/18 24/57/18 16/53/18
f 7/54/2 24/57/2 21/61/2
f 9/62/19 48/35/19 45/39/19
f 10/59/20 45/32/20 46/34/20
f 11/63/21 48/35/21 12/56/21
f 10/59/22 47/33/22 11/63/22
f 23/55/3 11/63/3 12/56/3
f 21/58/1 9/64/1 10/59/1
f 21/61/4 24/57/4 12/56/4
f 22/60/2 10/59/2 11/63/2
f 7/51/17 21/58/17 22/60/17
f 8/49/4 22/60/4 23/55/4
f 15/52/18 23/55/18 24/57/18
f 7/54/2 16/53/2 24/57/2
f 9/62/19 12/56/19 48/35/19
f 10/59/20 9/64/20 45/32/20
f 11/63/21 47/33/21 48/35/21
f 10/59/22 46/34/22 47/33/22
