# Blender v2.91.0 OBJ File: 'simpleWall.blend'
# www.blender.org
mtllib simpleRoof.mtl
o Roof_Cube.008
v -0.623021 -0.050000 0.623021
v -0.598264 0.050000 0.598264
v -0.623021 -0.050000 -0.623021
v -0.598264 0.050000 -0.598264
v 0.605590 -0.050000 0.623021
v 0.598264 0.050000 0.598264
v 0.623021 -0.050000 -0.623021
v 0.598264 0.050000 -0.598264
v 0.000000 -0.050000 -0.623021
v 0.000000 0.050000 -0.606134
v 0.000000 -0.050000 0.623021
v 0.000000 0.050000 0.606134
v -0.623021 -0.050000 0.000000
v -0.606134 0.050000 0.000000
v 0.623021 -0.050000 -0.012325
v 0.606134 0.050000 0.000000
v 0.000000 0.050000 0.000000
v 0.000000 -0.050000 0.000000
v -0.637675 -0.050000 0.000000
v -0.637675 -0.050000 0.637675
v 0.000000 -0.050000 -0.637675
v -0.637675 -0.050000 -0.637675
v 0.637675 -0.050000 -0.012325
v 0.637675 -0.050000 -0.637675
v 0.000000 -0.050000 0.637675
v 0.620244 -0.050000 0.637675
v -0.650000 -0.050000 0.000000
v -0.650000 -0.050000 0.650000
v 0.000000 -0.050000 -0.650000
v -0.650000 -0.050000 -0.650000
v 0.650000 -0.050000 0.000000
v 0.650000 -0.050000 -0.650000
v 0.000000 -0.050000 0.650000
v 0.650000 -0.050000 0.650000
v -0.610695 -0.050000 0.000000
v -0.602825 -0.050000 0.602825
v 0.000000 -0.050000 -0.610695
v -0.602825 -0.050000 -0.602825
v 0.610695 -0.050000 0.000000
v 0.602825 -0.050000 -0.602825
v 0.000000 -0.050000 0.610695
v 0.602825 -0.050000 0.602825
v -0.650000 0.050000 0.000000
v -0.650000 0.050000 -0.650000
v 0.000000 0.050000 -0.650000
v 0.650000 0.050000 -0.650000
v 0.650000 0.050000 0.000000
v 0.650000 0.050000 0.650000
v 0.000000 0.050000 0.650000
v -0.650000 0.050000 0.650000
v -0.602825 -0.050000 0.000000
v -0.610695 -0.050000 0.610695
v 0.000000 -0.050000 -0.602825
v -0.610695 -0.050000 -0.610695
v 0.602825 -0.050000 0.000000
v 0.610695 -0.050000 -0.610695
v 0.000000 -0.050000 0.602825
v 0.610695 -0.050000 0.610695
v -0.598264 0.050000 0.000000
v -0.606134 0.050000 -0.606134
v 0.000000 0.050000 -0.598264
v 0.606134 0.050000 -0.606134
v 0.598264 0.050000 0.000000
v 0.606134 0.050000 0.606134
v 0.000000 0.050000 0.598264
v -0.606134 0.050000 0.606134
vt 0.359786 0.625000
vt 0.250000 0.734786
vt 0.250000 0.625000
vt 0.865051 0.625000
vt 0.750000 0.740051
vt 0.750000 0.625000
vt 0.634949 0.740051
vt 0.634949 0.625000
vt 0.140214 0.625000
vt 0.140214 0.734786
vt 0.250000 0.515214
vt 0.140214 0.515214
vt 0.750000 0.509949
vt 0.634949 0.509949
vt 0.865051 0.509949
vt 0.138781 0.625000
vt 0.250000 0.513781
vt 0.359786 0.515214
vt 0.361219 0.625000
vt 0.359786 0.734786
vt 0.250000 0.736219
vt 0.361219 0.513781
vt 0.138781 0.736219
vt 0.138781 0.513781
vt 0.361219 0.736219
vt 0.866564 0.625000
vt 0.750000 0.508436
vt 0.633436 0.625000
vt 0.865051 0.740051
vt 0.750000 0.741564
vt 0.866564 0.508436
vt 0.633436 0.741564
vt 0.866564 0.741564
vt 0.633436 0.508436
vt 0.625000 0.125000
vt 0.375000 0.250000
vt 0.375000 0.125000
vt 0.625000 0.375000
vt 0.375000 0.500000
vt 0.375000 0.375000
vt 0.625000 0.625000
vt 0.375000 0.750000
vt 0.375000 0.625000
vt 0.625000 0.875000
vt 0.375000 1.000000
vt 0.375000 0.875000
vt 0.625000 0.750000
vt 0.625000 0.250000
vt 0.625000 0.500000
vt 0.625000 0.000000
vt 0.375000 0.000000
vt 0.134459 0.740541
vt 0.129321 0.625000
vt 0.134459 0.625000
vt 0.134459 0.509459
vt 0.250000 0.504321
vt 0.250000 0.509459
vt 0.365541 0.509459
vt 0.370679 0.622679
vt 0.365541 0.622706
vt 0.362241 0.740541
vt 0.250000 0.745679
vt 0.250000 0.740541
vt 0.370679 0.504321
vt 0.129321 0.745678
vt 0.129321 0.504322
vt 0.125000 0.625000
vt 0.250000 0.500000
vt 0.367348 0.745679
vt 0.250000 0.750000
vt 0.125000 0.750000
vt 0.125000 0.500000
vt 0.875000 0.625000
vt 0.750000 0.500000
vt 0.750000 0.750000
vt 0.875000 0.500000
vt 0.875000 0.750000
vt 0.625000 1.000000
vn 0.0000 -1.0000 0.0000
vn 0.0000 1.0000 0.0000
vn -1.0000 0.0000 0.0000
vn 0.0000 0.0000 -1.0000
vn 1.0000 0.0000 0.0000
vn 0.0000 0.0000 1.0000
usemtl Material
s off
f 55/1/1 57/2/1 18/3/1
f 59/4/2 65/5/2 17/6/2
f 17/6/2 6/7/2 63/8/2
f 51/9/1 57/2/1 36/10/1
f 53/11/1 51/9/1 38/12/1
f 61/13/2 63/8/2 8/14/2
f 4/15/2 17/6/2 61/13/2
f 53/11/1 55/1/1 18/3/1
f 36/10/1 35/16/1 51/9/1
f 38/12/1 37/17/1 53/11/1
f 40/18/1 39/19/1 55/1/1
f 42/20/1 41/21/1 57/2/1
f 40/18/1 37/17/1 56/22/1
f 36/10/1 41/21/1 52/23/1
f 38/12/1 35/16/1 54/24/1
f 42/20/1 39/19/1 58/25/1
f 4/15/2 14/26/2 59/4/2
f 8/14/2 10/27/2 61/13/2
f 6/7/2 16/28/2 63/8/2
f 2/29/2 12/30/2 65/5/2
f 4/15/2 10/27/2 60/31/2
f 6/7/2 12/30/2 64/32/2
f 2/29/2 14/26/2 66/33/2
f 8/14/2 16/28/2 62/34/2
f 55/1/1 42/20/1 57/2/1
f 59/4/2 2/29/2 65/5/2
f 17/6/2 65/5/2 6/7/2
f 51/9/1 18/3/1 57/2/1
f 53/11/1 18/3/1 51/9/1
f 61/13/2 17/6/2 63/8/2
f 4/15/2 59/4/2 17/6/2
f 53/11/1 40/18/1 55/1/1
f 36/10/1 52/23/1 35/16/1
f 38/12/1 54/24/1 37/17/1
f 40/18/1 56/22/1 39/19/1
f 42/20/1 58/25/1 41/21/1
f 40/18/1 53/11/1 37/17/1
f 36/10/1 57/2/1 41/21/1
f 38/12/1 51/9/1 35/16/1
f 42/20/1 55/1/1 39/19/1
f 4/15/2 60/31/2 14/26/2
f 8/14/2 62/34/2 10/27/2
f 6/7/2 64/32/2 16/28/2
f 2/29/2 66/33/2 12/30/2
f 4/15/2 61/13/2 10/27/2
f 6/7/2 65/5/2 12/30/2
f 2/29/2 59/4/2 14/26/2
f 8/14/2 63/8/2 16/28/2
usemtl Material.021
f 43/35/3 30/36/3 27/37/3
f 45/38/4 32/39/4 29/40/4
f 47/41/5 34/42/5 31/43/5
f 49/44/6 28/45/6 33/46/6
f 48/47/6 33/46/6 34/42/6
f 44/48/4 29/40/4 30/36/4
f 46/49/5 31/43/5 32/39/5
f 50/50/3 27/37/3 28/51/3
f 1/52/1 19/53/1 13/54/1
f 3/55/1 21/56/1 9/57/1
f 7/58/1 23/59/1 15/60/1
f 5/61/1 25/62/1 11/63/1
f 7/58/1 21/56/1 24/64/1
f 1/52/1 25/62/1 20/65/1
f 3/55/1 19/53/1 22/66/1
f 58/25/1 31/43/1 34/42/1
f 20/65/1 27/67/1 19/53/1
f 22/66/1 29/68/1 21/56/1
f 24/64/1 31/43/1 23/59/1
f 26/69/1 33/70/1 25/62/1
f 24/64/1 29/68/1 32/39/1
f 20/65/1 33/70/1 28/71/1
f 22/66/1 27/67/1 30/72/1
f 13/54/1 52/23/1 1/52/1
f 9/57/1 54/24/1 3/55/1
f 15/60/1 56/22/1 7/58/1
f 5/61/1 41/21/1 58/25/1
f 9/57/1 56/22/1 37/17/1
f 11/63/1 52/23/1 41/21/1
f 13/54/1 54/24/1 35/16/1
f 23/59/1 39/19/1 15/60/1
f 26/69/1 58/25/1 34/42/1
f 60/31/2 43/73/2 14/26/2
f 62/34/2 45/74/2 10/27/2
f 64/32/2 47/41/2 16/28/2
f 66/33/2 49/75/2 12/30/2
f 60/31/2 45/74/2 44/76/2
f 64/32/2 49/75/2 48/47/2
f 66/33/2 43/73/2 50/77/2
f 62/34/2 47/41/2 46/49/2
f 43/35/3 44/48/3 30/36/3
f 45/38/4 46/49/4 32/39/4
f 47/41/5 48/47/5 34/42/5
f 49/44/6 50/78/6 28/45/6
f 48/47/6 49/44/6 33/46/6
f 44/48/4 45/38/4 29/40/4
f 46/49/5 47/41/5 31/43/5
f 50/50/3 43/35/3 27/37/3
f 1/52/1 20/65/1 19/53/1
f 3/55/1 22/66/1 21/56/1
f 7/58/1 24/64/1 23/59/1
f 5/61/1 26/69/1 25/62/1
f 7/58/1 9/57/1 21/56/1
f 1/52/1 11/63/1 25/62/1
f 3/55/1 13/54/1 19/53/1
f 58/25/1 39/19/1 31/43/1
f 20/65/1 28/71/1 27/67/1
f 22/66/1 30/72/1 29/68/1
f 24/64/1 32/39/1 31/43/1
f 26/69/1 34/42/1 33/70/1
f 24/64/1 21/56/1 29/68/1
f 20/65/1 25/62/1 33/70/1
f 22/66/1 19/53/1 27/67/1
f 13/54/1 35/16/1 52/23/1
f 9/57/1 37/17/1 54/24/1
f 15/60/1 39/19/1 56/22/1
f 5/61/1 11/63/1 41/21/1
f 9/57/1 7/58/1 56/22/1
f 11/63/1 1/52/1 52/23/1
f 13/54/1 3/55/1 54/24/1
f 23/59/1 31/43/1 39/19/1
f 26/69/1 5/61/1 58/25/1
f 60/31/2 44/76/2 43/73/2
f 62/34/2 46/49/2 45/74/2
f 64/32/2 48/47/2 47/41/2
f 66/33/2 50/77/2 49/75/2
f 60/31/2 10/27/2 45/74/2
f 64/32/2 12/30/2 49/75/2
f 66/33/2 14/26/2 43/73/2
f 62/34/2 16/28/2 47/41/2
