# Blender v2.91.0 OBJ File: 'simpleWall.blend'
# www.blender.org
mtllib simpleSidewalk.mtl
o Sidewalk1_Cube.006
v -0.517939 0.045109 0.490028
v 0.462117 0.045109 0.490028
v -0.517939 0.045109 -0.490028
v 0.462117 0.045109 -0.490028
v -0.517939 -0.054891 0.490028
v 0.462117 -0.054891 0.490028
v -0.517939 -0.054891 -0.490028
v 0.462117 -0.054891 -0.490028
v 0.044473 0.045109 0.490028
v 0.179535 0.045109 0.490028
v 0.179535 0.045109 -0.490028
v 0.044473 0.045109 -0.490028
v 0.179535 -0.058123 -0.490028
v 0.044473 -0.058123 -0.490028
v 0.179535 -0.058123 0.490028
v 0.044473 -0.058123 0.490028
v 0.041064 -0.058123 0.490028
v 0.041064 0.045109 0.490028
v 0.182944 -0.058123 0.490028
v 0.182944 0.045109 0.490028
v 0.041064 -0.058123 -0.490028
v 0.182944 -0.058123 -0.490028
v 0.041064 0.045109 -0.490028
v 0.182944 0.045109 -0.490028
v -0.527911 0.045109 -0.500000
v -0.527911 0.045109 0.500000
v 0.182944 0.045109 0.500000
v 0.472089 0.045109 0.500000
v 0.472089 0.045109 -0.500000
v 0.041064 0.045109 -0.500000
v 0.041064 -0.058123 -0.500000
v -0.527911 -0.054891 -0.500000
v -0.527911 -0.054891 0.500000
v 0.472089 -0.054891 -0.500000
v 0.472089 -0.054891 0.500000
v 0.041064 -0.058123 0.500000
v 0.041064 0.045109 0.500000
v 0.044473 0.045109 0.500000
v 0.179535 0.045109 0.500000
v 0.182944 0.045109 -0.500000
v 0.179535 0.045109 -0.500000
v 0.044473 0.045109 -0.500000
v 0.182944 -0.058123 -0.500000
v 0.179535 -0.058123 -0.500000
v 0.044473 -0.058123 -0.500000
v 0.182944 -0.058123 0.500000
v 0.179535 -0.058123 0.500000
v 0.044473 -0.058123 0.500000
v -0.517939 0.045109 -0.490028
v -0.517939 0.045109 0.490028
v 0.182944 0.045109 0.490028
v 0.462117 0.045109 0.490028
v 0.462117 0.045109 -0.490028
v 0.041064 0.045109 -0.490028
v 0.041064 -0.058123 -0.490028
v -0.517939 -0.054891 -0.490028
v -0.517939 -0.054891 0.490028
v 0.462117 -0.054891 -0.490028
v 0.462117 -0.054891 0.490028
v 0.041064 -0.058123 0.490028
v 0.041064 0.045109 0.490028
v 0.044473 0.045109 0.490028
v 0.179535 0.045109 0.490028
v 0.182944 0.045109 -0.490028
v 0.179535 0.045109 -0.490028
v 0.044473 0.045109 -0.490028
v 0.182944 -0.058123 -0.490028
v 0.179535 -0.058123 -0.490028
v 0.044473 -0.058123 -0.490028
v 0.182944 -0.058123 0.490028
v 0.179535 -0.058123 0.490028
v 0.044473 -0.058123 0.490028
v -0.418611 0.046490 -0.406584
v -0.418611 0.046490 0.406584
v 0.162923 0.046490 0.406584
v 0.394556 0.046490 0.406584
v 0.394556 0.046490 -0.406584
v 0.045202 0.046490 -0.406584
v 0.041064 -0.048211 -0.490028
v -0.517939 -0.045594 -0.490028
v -0.517939 -0.045594 0.490028
v 0.462117 -0.045594 -0.490028
v 0.462117 -0.045594 0.490028
v 0.041064 -0.048211 0.490028
v 0.045202 0.046490 0.406584
v 0.048031 0.046490 0.406584
v 0.160094 0.046490 0.406584
v 0.162923 0.046490 -0.406584
v 0.160094 0.046490 -0.406584
v 0.048031 0.046490 -0.406584
v 0.182944 -0.048211 -0.490028
v 0.179535 -0.048211 -0.490028
v 0.044473 -0.048211 -0.490028
v 0.182944 -0.048211 0.490028
v 0.179535 -0.048211 0.490028
v 0.044473 -0.048211 0.490028
v -0.527911 0.045109 -0.500000
v -0.527911 0.045109 0.500000
v -0.517939 0.045109 -0.490028
v -0.517939 0.045109 0.490028
v -0.527911 0.048965 -0.500000
v -0.527911 0.048965 0.500000
v -0.517939 0.048965 -0.490028
v -0.517939 0.048965 0.490028
v -0.527911 0.049167 -0.500000
v -0.527911 0.049167 0.500000
v -0.517939 0.049167 -0.490028
v -0.517939 0.049167 0.490028
vt 0.375000 0.500000
vt 0.125000 0.750000
vt 0.125000 0.500000
vt 0.875000 0.500000
vt 0.625000 0.750000
vt 0.625000 0.500000
vt 0.495613 0.502493
vt 0.497062 0.502493
vt 0.495613 0.502493
vt 0.375000 0.250000
vt 0.493312 0.250000
vt 0.493312 1.000000
vt 0.375000 1.000000
vt 0.375000 0.750000
vt 0.377188 0.747507
vt 0.377188 0.502493
vt 0.377188 0.747507
vt 0.375000 0.000000
vt 0.377188 0.002493
vt 0.375000 0.000000
vt 0.623076 0.002493
vt 0.576645 0.000000
vt 0.625000 0.000000
vt 0.625000 0.250000
vt 0.623076 0.247507
vt 0.377188 0.247507
vt 0.377188 0.502493
vt 0.493312 0.500000
vt 0.623076 0.502493
vt 0.623076 0.747507
vt 0.493312 0.750000
vt 0.377188 0.002493
vt 0.493312 0.000000
vt 0.495613 0.002493
vt 0.497062 0.002493
vt 0.574643 0.000000
vt 0.572650 0.002493
vt 0.576645 0.250000
vt 0.574036 0.247507
vt 0.572650 0.247507
vt 0.495315 0.250000
vt 0.497062 0.247507
vt 0.576645 0.500000
vt 0.497062 0.502493
vt 0.574643 0.500000
vt 0.572650 0.502493
vt 0.576645 0.750000
vt 0.574036 0.747507
vt 0.572650 0.747507
vt 0.495315 0.750000
vt 0.497062 0.747507
vt 0.495613 0.747507
vt 0.495315 0.000000
vt 0.574036 0.002493
vt 0.574643 0.750000
vt 0.495315 0.500000
vt 0.574036 0.502493
vt 0.495613 0.247507
vt 0.574643 0.250000
vt 0.623076 0.247507
vt 0.623076 0.002493
vt 0.623076 0.002493
vt 0.497062 0.002493
vt 0.572650 0.002493
vt 0.497062 0.002493
vt 0.572650 0.502493
vt 0.623076 0.747507
vt 0.623076 0.502493
vt 0.574036 0.502493
vt 0.574036 0.747507
vt 0.495613 0.747507
vt 0.495613 0.247507
vt 0.497062 0.247507
vt 0.377188 0.002493
vt 0.377188 0.247507
vt 0.497062 0.747507
vt 0.572650 0.747507
vt 0.495613 0.002493
vt 0.572650 0.247507
vt 0.574036 0.247507
vt 0.574036 0.002493
vt 0.572650 0.002493
vt 0.495613 0.747507
vt 0.377188 0.502493
vt 0.495613 0.502493
vt 0.495613 0.247507
vt 0.377188 0.002493
vt 0.495613 0.002493
vt 0.623076 0.247507
vt 0.377188 0.247507
vt 0.574036 0.002493
vt 0.572650 0.247507
vt 0.574036 0.747507
vt 0.574036 0.502493
vt 0.377188 0.747507
vt 0.497062 0.502493
vt 0.623076 0.502493
vt 0.572650 0.502493
vt 0.623076 0.747507
vt 0.497062 0.247507
vt 0.572650 0.747507
vt 0.574036 0.247507
vt 0.497062 0.747507
vt 0.375000 0.250000
vt 0.377188 0.247507
vt 0.377188 0.247507
vt 0.125000 0.750000
vt 0.125000 0.500000
vt 0.377188 0.002493
vt 0.375000 0.000000
vt 0.375000 0.000000
vt 0.125000 0.500000
vt 0.377188 0.247507
vt 0.377188 0.002493
vt 0.125000 0.750000
vt 0.125000 0.500000
vt 0.375000 0.250000
vt 0.875000 0.750000
vt 0.574643 1.000000
vt 0.576645 1.000000
vt 0.495315 1.000000
vt 0.625000 1.000000
vt 0.375000 0.250000
vt 0.125000 0.750000
vn -1.0000 0.0000 0.0000
vn 1.0000 0.0000 0.0000
vn 0.0000 0.0000 1.0000
vn 0.0000 0.0000 -1.0000
vn 0.0000 1.0000 0.0000
vn -0.0058 -1.0000 0.0000
vn 0.0000 -1.0000 0.0000
vn -0.0057 -1.0000 -0.0057
vn 0.0112 -0.9999 0.0112
vn 0.0116 -0.9999 0.0000
vn 0.0204 0.9998 0.0000
vn 0.0000 0.9999 0.0166
vn -0.0047 -1.0000 0.0000
vn 0.0000 0.9999 -0.0166
vn -0.0139 0.9999 0.0000
vn 0.7071 0.0000 -0.7071
vn 0.7071 0.0000 0.7071
vn -0.0057 -1.0000 0.0057
vn 0.0112 -0.9999 -0.0112
vn 0.0094 -1.0000 0.0000
usemtl Material.016
s off
f 32/1/1 26/2/1 25/3/1
f 29/4/2 35/5/2 34/6/2
f 21/7/3 69/8/3 55/9/3
f 32/1/4 25/10/4 30/11/4
f 37/12/3 26/13/3 33/14/3
f 5/15/3 56/16/3 57/17/3
f 26/18/3 100/19/3 98/20/3
f 2/21/5 27/22/5 28/23/5
f 2/21/5 29/24/5 4/25/5
f 3/26/5 30/11/5 25/10/5
f 7/27/6 31/28/6 21/7/6
f 5/15/7 32/1/7 7/27/7
f 8/29/7 35/5/7 6/30/7
f 5/15/8 36/31/8 33/14/8
f 1/32/5 37/33/5 18/34/5
f 9/35/5 39/36/5 10/37/5
f 4/25/5 40/38/5 24/39/5
f 11/40/5 42/41/5 12/42/5
f 8/29/9 43/43/9 34/6/9
f 14/44/7 44/45/7 13/46/7
f 6/30/10 46/47/10 19/48/10
f 15/49/7 48/50/7 16/51/7
f 16/51/7 36/31/7 17/52/7
f 18/34/5 38/53/5 9/35/5
f 10/37/5 27/22/5 20/54/5
f 19/48/7 47/55/7 15/49/7
f 21/7/7 45/56/7 14/44/7
f 13/46/7 43/43/7 22/57/7
f 12/42/5 30/11/5 23/58/5
f 24/39/5 41/59/5 11/40/5
f 53/60/11 76/61/11 52/62/11
f 62/63/12 87/64/12 86/65/12
f 14/44/3 68/66/3 69/8/3
f 8/29/3 59/67/3 58/68/3
f 13/46/3 67/69/3 68/66/3
f 6/30/3 70/70/3 59/67/3
f 17/52/3 57/17/3 60/71/3
f 12/42/3 54/72/3 66/73/3
f 3/26/3 50/74/3 49/75/3
f 15/49/3 72/76/3 71/77/3
f 1/32/3 61/78/3 50/74/3
f 24/39/3 65/79/3 64/80/3
f 20/54/3 52/62/3 51/81/3
f 16/51/3 60/71/3 72/76/3
f 9/35/3 63/82/3 62/63/3
f 2/21/3 53/60/3 52/62/3
f 18/34/3 62/63/3 61/78/3
f 4/25/3 64/80/3 53/60/3
f 23/58/3 49/75/3 54/72/3
f 10/37/3 51/81/3 63/82/3
f 11/40/3 66/73/3 65/79/3
f 7/27/3 55/9/3 56/16/3
f 19/48/3 71/77/3 70/70/3
f 22/57/3 58/68/3 67/69/3
f 84/83/13 80/84/13 79/85/13
f 78/86/5 74/87/5 85/88/5
f 62/63/12 85/88/12 61/78/12
f 64/80/14 77/89/14 53/60/14
f 54/72/14 73/90/14 78/86/14
f 63/82/12 75/91/12 87/64/12
f 66/73/14 89/92/14 65/79/14
f 56/16/3 79/85/3 80/84/3
f 71/77/4 94/93/4 70/70/4
f 58/68/3 91/94/3 67/69/3
f 56/16/2 81/95/2 57/17/2
f 69/8/3 79/85/3 55/9/3
f 68/66/3 93/96/3 69/8/3
f 59/67/1 82/97/1 58/68/1
f 67/69/3 92/98/3 68/66/3
f 59/67/4 94/93/4 83/99/4
f 57/17/4 84/83/4 60/71/4
f 66/73/14 78/86/14 90/100/14
f 50/74/15 73/90/15 49/75/15
f 72/76/4 95/101/4 71/77/4
f 61/78/12 74/87/12 50/74/12
f 65/79/14 88/102/14 64/80/14
f 51/81/12 76/61/12 75/91/12
f 60/71/4 96/103/4 72/76/4
f 97/104/16 103/105/16 99/106/16
f 1/32/3 99/106/3 100/19/3
f 25/3/3 98/107/3 97/108/3
f 3/26/3 97/104/3 99/106/3
f 104/109/17 106/110/17 102/111/17
f 99/106/2 104/109/2 100/19/2
f 100/19/17 102/111/17 98/20/17
f 98/107/1 101/112/1 97/108/1
f 107/113/5 106/110/5 108/114/5
f 102/115/1 105/116/1 101/112/1
f 101/117/16 107/113/16 103/105/16
f 103/105/2 108/114/2 104/109/2
f 32/1/1 33/14/1 26/2/1
f 29/4/2 28/118/2 35/5/2
f 21/7/3 14/44/3 69/8/3
f 41/59/4 40/38/4 44/45/4
f 40/38/4 29/24/4 34/6/4
f 44/45/4 40/38/4 43/43/4
f 34/6/4 43/43/4 40/38/4
f 44/45/4 45/56/4 42/41/4
f 45/56/4 31/28/4 30/11/4
f 30/11/4 31/28/4 32/1/4
f 30/11/4 42/41/4 45/56/4
f 42/41/4 41/59/4 44/45/4
f 47/55/3 46/47/3 39/119/3
f 46/47/3 35/5/3 27/120/3
f 47/55/3 38/121/3 48/50/3
f 35/5/3 28/122/3 27/120/3
f 39/119/3 38/121/3 47/55/3
f 38/121/3 37/12/3 48/50/3
f 39/119/3 46/47/3 27/120/3
f 33/14/3 36/31/3 37/12/3
f 36/31/3 48/50/3 37/12/3
f 5/15/3 7/27/3 56/16/3
f 26/18/3 1/32/3 100/19/3
f 2/21/5 20/54/5 27/22/5
f 2/21/5 28/23/5 29/24/5
f 3/26/5 23/58/5 30/11/5
f 7/27/18 32/1/18 31/28/18
f 5/15/7 33/14/7 32/1/7
f 8/29/7 34/6/7 35/5/7
f 5/15/6 17/52/6 36/31/6
f 1/32/5 26/18/5 37/33/5
f 9/35/5 38/53/5 39/36/5
f 4/25/5 29/24/5 40/38/5
f 11/40/5 41/59/5 42/41/5
f 8/29/10 22/57/10 43/43/10
f 14/44/7 45/56/7 44/45/7
f 6/30/19 35/5/19 46/47/19
f 15/49/7 47/55/7 48/50/7
f 16/51/7 48/50/7 36/31/7
f 18/34/5 37/33/5 38/53/5
f 10/37/5 39/36/5 27/22/5
f 19/48/7 46/47/7 47/55/7
f 21/7/7 31/28/7 45/56/7
f 13/46/7 44/45/7 43/43/7
f 12/42/5 42/41/5 30/11/5
f 24/39/5 40/38/5 41/59/5
f 53/60/11 77/89/11 76/61/11
f 62/63/12 63/82/12 87/64/12
f 14/44/3 13/46/3 68/66/3
f 8/29/3 6/30/3 59/67/3
f 13/46/3 22/57/3 67/69/3
f 6/30/3 19/48/3 70/70/3
f 17/52/3 5/15/3 57/17/3
f 12/42/3 23/58/3 54/72/3
f 3/26/3 1/32/3 50/74/3
f 15/49/3 16/51/3 72/76/3
f 1/32/3 18/34/3 61/78/3
f 24/39/3 11/40/3 65/79/3
f 20/54/3 2/21/3 52/62/3
f 16/51/3 17/52/3 60/71/3
f 9/35/3 10/37/3 63/82/3
f 2/21/3 4/25/3 53/60/3
f 18/34/3 9/35/3 62/63/3
f 4/25/3 24/39/3 64/80/3
f 23/58/3 3/26/3 49/75/3
f 10/37/3 20/54/3 51/81/3
f 11/40/3 12/42/3 66/73/3
f 7/27/3 21/7/3 55/9/3
f 19/48/3 15/49/3 71/77/3
f 22/57/3 8/29/3 58/68/3
f 92/98/7 91/94/7 95/101/7
f 91/94/20 82/97/20 94/93/20
f 95/101/7 91/94/7 94/93/7
f 82/97/20 83/99/20 94/93/20
f 95/101/7 96/103/7 92/98/7
f 96/103/7 84/83/7 93/96/7
f 92/98/7 96/103/7 93/96/7
f 79/85/7 93/96/7 84/83/7
f 84/83/13 81/95/13 80/84/13
f 87/64/5 75/91/5 89/92/5
f 75/91/5 76/61/5 88/102/5
f 89/92/5 75/91/5 88/102/5
f 76/61/5 77/89/5 88/102/5
f 89/92/5 90/100/5 87/64/5
f 90/100/5 78/86/5 86/65/5
f 87/64/5 90/100/5 86/65/5
f 85/88/5 86/65/5 78/86/5
f 78/86/5 73/90/5 74/87/5
f 62/63/12 86/65/12 85/88/12
f 64/80/14 88/102/14 77/89/14
f 54/72/14 49/75/14 73/90/14
f 63/82/12 51/81/12 75/91/12
f 66/73/14 90/100/14 89/92/14
f 56/16/3 55/9/3 79/85/3
f 71/77/4 95/101/4 94/93/4
f 58/68/3 82/97/3 91/94/3
f 56/16/2 80/84/2 81/95/2
f 69/8/3 93/96/3 79/85/3
f 68/66/3 92/98/3 93/96/3
f 59/67/1 83/99/1 82/97/1
f 67/69/3 91/94/3 92/98/3
f 59/67/4 70/70/4 94/93/4
f 57/17/4 81/95/4 84/83/4
f 66/73/14 54/72/14 78/86/14
f 50/74/15 74/87/15 73/90/15
f 72/76/4 96/103/4 95/101/4
f 61/78/12 85/88/12 74/87/12
f 65/79/14 89/92/14 88/102/14
f 51/81/12 52/62/12 76/61/12
f 60/71/4 84/83/4 96/103/4
f 97/104/16 101/117/16 103/105/16
f 1/32/3 3/26/3 99/106/3
f 25/3/3 26/2/3 98/107/3
f 3/26/3 25/10/3 97/104/3
f 104/109/17 108/114/17 106/110/17
f 99/106/2 103/105/2 104/109/2
f 100/19/17 104/109/17 102/111/17
f 98/107/1 102/115/1 101/112/1
f 107/113/5 105/123/5 106/110/5
f 102/115/1 106/124/1 105/116/1
f 101/117/16 105/123/16 107/113/16
f 103/105/2 107/113/2 108/114/2
