# Blender v2.91.0 OBJ File: 'RestaurantGameModels.blend'
# www.blender.org
mtllib door.mtl
o Cube.002
v -0.007168 -0.004847 0.238973
v -0.007168 0.855289 0.238973
v -0.007168 -0.004847 -0.238973
v -0.007168 0.855289 -0.238973
v 0.086653 0.014340 0.220462
v 0.086653 0.836102 0.220462
v 0.086653 0.014340 -0.220462
v 0.086653 0.836102 -0.220462
v 0.086653 0.855289 -0.238973
v 0.086653 -0.004847 -0.238973
v 0.086653 -0.004847 0.238973
v 0.086653 0.855289 0.238973
v 0.082356 0.441675 -0.173948
v 0.082356 0.408767 -0.173948
v 0.082356 0.408767 -0.145698
v 0.082356 0.441675 -0.145698
v 0.082356 0.836102 -0.220462
v 0.082356 0.014340 -0.220462
v 0.082356 0.014340 0.220462
v 0.082356 0.836102 0.220462
v 0.082356 0.832446 -0.218430
v 0.082356 0.017996 -0.218430
v 0.082356 0.017996 0.218430
v 0.082356 0.832446 0.218430
v 0.099070 0.441675 -0.173948
v 0.099070 0.408767 -0.173948
v 0.099070 0.408767 -0.145698
v 0.099070 0.441675 -0.145698
v 0.089349 0.446836 -0.178379
v 0.089349 0.403606 -0.178379
v 0.089349 0.403606 -0.141267
v 0.089349 0.446836 -0.141267
v 0.102715 0.446836 -0.178379
v 0.102715 0.403606 -0.178379
v 0.102715 0.403606 -0.141267
v 0.102715 0.446836 -0.141267
v 0.007168 -0.004847 -0.238973
v 0.007168 0.855289 -0.238973
v 0.007168 -0.004847 0.238973
v 0.007168 0.855289 0.238973
v -0.086653 0.014340 -0.220462
v -0.086653 0.836102 -0.220462
v -0.086653 0.014340 0.220462
v -0.086653 0.836102 0.220462
v -0.086653 0.855289 0.238973
v -0.086653 -0.004847 0.238973
v -0.086653 -0.004847 -0.238973
v -0.086653 0.855289 -0.238973
v -0.082356 0.441675 0.173948
v -0.082356 0.408767 0.173948
v -0.082356 0.408767 0.145698
v -0.082356 0.441675 0.145698
v -0.082356 0.836102 0.220462
v -0.082356 0.014340 0.220462
v -0.082356 0.014340 -0.220462
v -0.082356 0.836102 -0.220462
v -0.082356 0.832446 0.218430
v -0.082356 0.017996 0.218430
v -0.082356 0.017996 -0.218430
v -0.082356 0.832446 -0.218430
v -0.099070 0.441675 0.173948
v -0.099070 0.408767 0.173948
v -0.099070 0.408767 0.145698
v -0.099070 0.441675 0.145698
v -0.089349 0.446836 0.178379
v -0.089349 0.403606 0.178379
v -0.089349 0.403606 0.141267
v -0.089349 0.446836 0.141267
v -0.102715 0.446836 0.178379
v -0.102715 0.403606 0.178379
v -0.102715 0.403606 0.141267
v -0.102715 0.446836 0.141267
vt 0.625000 0.000000
vt 0.375000 0.250000
vt 0.375000 0.000000
vt 0.625000 0.250000
vt 0.375000 0.500000
vt 0.615318 0.740318
vt 0.615318 0.509682
vt 0.615318 0.509682
vt 0.625000 0.750000
vt 0.375000 1.000000
vt 0.375000 0.750000
vt 0.125000 0.750000
vt 0.125000 0.500000
vt 0.875000 0.500000
vt 0.625000 0.500000
vt 0.384682 0.509682
vt 0.384682 0.740318
vt 0.384682 0.509682
vt 0.615318 0.740318
vt 0.384682 0.740318
vt 0.511099 0.632388
vt 0.511099 0.617612
vt 0.511099 0.617612
vt 0.488901 0.632388
vt 0.488901 0.617611
vt 0.488901 0.617611
vt 0.488901 0.632388
vt 0.511099 0.632388
vt 0.625000 1.000000
vt 0.875000 0.750000
vt 0.511099 0.632388
vt 0.511099 0.617612
vt 0.511099 0.617612
vt 0.385709 0.510745
vt 0.614291 0.510745
vt 0.385709 0.739255
vt 0.614291 0.739255
vt 0.488901 0.632388
vt 0.488901 0.617611
vt 0.488901 0.617611
vt 0.511099 0.632388
vt 0.488901 0.632388
vt 0.625000 0.000000
vt 0.375000 0.250000
vt 0.375000 0.000000
vt 0.625000 0.250000
vt 0.375000 0.500000
vt 0.615318 0.509682
vt 0.615318 0.740318
vt 0.615318 0.509682
vt 0.625000 0.750000
vt 0.375000 1.000000
vt 0.375000 0.750000
vt 0.125000 0.750000
vt 0.125000 0.500000
vt 0.625000 0.500000
vt 0.875000 0.750000
vt 0.384682 0.509682
vt 0.384682 0.740318
vt 0.615318 0.740318
vt 0.384682 0.509682
vt 0.384682 0.740318
vt 0.511099 0.632388
vt 0.511099 0.617612
vt 0.511099 0.617612
vt 0.488901 0.632388
vt 0.488901 0.617611
vt 0.488901 0.617611
vt 0.488901 0.632388
vt 0.511099 0.632388
vt 0.625000 1.000000
vt 0.875000 0.500000
vt 0.511099 0.632388
vt 0.511099 0.617612
vt 0.511099 0.617612
vt 0.385709 0.510745
vt 0.614291 0.510745
vt 0.385709 0.739255
vt 0.614291 0.739255
vt 0.488901 0.632388
vt 0.488901 0.617611
vt 0.488901 0.617611
vt 0.511099 0.632388
vt 0.488901 0.632388
vn -1.0000 0.0000 0.0000
vn 0.0000 0.0000 -1.0000
vn 0.0000 -1.0000 0.0000
vn 0.0000 0.0000 1.0000
vn 0.0000 1.0000 0.0000
vn 1.0000 0.0000 0.0000
vn -0.4689 0.8832 0.0000
vn -0.4147 0.0000 -0.9099
vn -0.4148 0.0000 0.9099
vn -0.4689 -0.8832 0.0000
vn -0.4148 0.0000 -0.9099
vn 0.4689 0.8832 0.0000
vn 0.4147 0.0000 0.9099
vn 0.4147 0.0000 -0.9099
vn 0.4689 -0.8832 0.0000
vn 0.4148 0.0000 0.9099
usemtl Material.003
s off
f 2/1/1 3/2/1 1/3/1
f 4/4/2 10/5/2 3/2/2
f 6/6/3 17/7/3 8/8/3
f 12/9/4 1/10/4 11/11/4
f 10/5/3 1/12/3 3/13/3
f 4/14/5 12/9/5 9/15/5
f 7/16/6 9/15/6 8/8/6
f 5/17/6 10/5/6 7/16/6
f 8/8/6 12/9/6 6/6/6
f 6/6/6 11/11/6 5/17/6
f 8/8/4 18/18/4 7/16/4
f 5/17/2 20/19/2 6/6/2
f 7/16/5 19/20/5 5/17/5
f 32/21/5 33/22/5 29/23/5
f 33/22/6 35/24/6 34/25/6
f 29/23/2 34/25/2 30/26/2
f 31/27/4 36/28/4 32/21/4
f 30/26/3 35/24/3 31/27/3
f 2/1/1 4/4/1 3/2/1
f 4/4/2 9/15/2 10/5/2
f 6/6/3 20/19/3 17/7/3
f 12/9/4 2/29/4 1/10/4
f 10/5/3 11/11/3 1/12/3
f 4/14/5 2/30/5 12/9/5
f 7/16/6 10/5/6 9/15/6
f 5/17/6 11/11/6 10/5/6
f 8/8/6 9/15/6 12/9/6
f 6/6/6 12/9/6 11/11/6
f 8/8/4 17/7/4 18/18/4
f 5/17/2 19/20/2 20/19/2
f 7/16/5 18/18/5 19/20/5
f 32/21/5 36/28/5 33/22/5
f 33/22/6 36/28/6 35/24/6
f 29/23/2 33/22/2 34/25/2
f 31/27/4 35/24/4 36/28/4
f 30/26/3 34/25/3 35/24/3
usemtl Material.004
f 16/31/5 25/32/5 13/33/5
f 22/34/6 17/7/6 21/35/6
f 23/36/6 18/18/6 22/34/6
f 21/35/6 20/19/6 24/37/6
f 24/37/6 19/20/6 23/36/6
f 13/33/6 22/34/6 21/35/6
f 15/38/6 22/34/6 14/39/6
f 16/31/6 21/35/6 24/37/6
f 15/38/6 24/37/6 23/36/6
f 13/33/2 26/40/2 14/39/2
f 15/38/4 28/41/4 16/31/4
f 14/39/3 27/42/3 15/38/3
f 26/40/7 31/27/7 27/42/7
f 27/42/8 32/21/8 28/41/8
f 25/32/9 30/26/9 26/40/9
f 28/41/10 29/23/10 25/32/10
f 16/31/5 28/41/5 25/32/5
f 22/34/6 18/18/6 17/7/6
f 23/36/6 19/20/6 18/18/6
f 21/35/6 17/7/6 20/19/6
f 24/37/6 20/19/6 19/20/6
f 13/33/6 14/39/6 22/34/6
f 15/38/6 23/36/6 22/34/6
f 16/31/6 13/33/6 21/35/6
f 15/38/6 16/31/6 24/37/6
f 13/33/2 25/32/2 26/40/2
f 15/38/4 27/42/4 28/41/4
f 14/39/3 26/40/3 27/42/3
f 26/40/7 30/26/7 31/27/7
f 27/42/11 31/27/11 32/21/11
f 25/32/9 29/23/9 30/26/9
f 28/41/10 32/21/10 29/23/10
usemtl Material.006
f 38/43/6 39/44/6 37/45/6
f 40/46/4 46/47/4 39/44/4
f 44/48/3 56/49/3 53/50/3
f 48/51/2 37/52/2 47/53/2
f 46/47/3 37/54/3 39/55/3
f 45/56/5 38/57/5 48/51/5
f 43/58/1 45/56/1 44/48/1
f 41/59/1 46/47/1 43/58/1
f 44/48/1 48/51/1 42/60/1
f 42/60/1 47/53/1 41/59/1
f 44/48/2 54/61/2 43/58/2
f 41/59/4 56/49/4 42/60/4
f 43/58/5 55/62/5 41/59/5
f 68/63/5 69/64/5 65/65/5
f 69/64/1 71/66/1 70/67/1
f 65/65/4 70/67/4 66/68/4
f 67/69/2 72/70/2 68/63/2
f 66/68/3 71/66/3 67/69/3
f 38/43/6 40/46/6 39/44/6
f 40/46/4 45/56/4 46/47/4
f 44/48/3 42/60/3 56/49/3
f 48/51/2 38/71/2 37/52/2
f 46/47/3 47/53/3 37/54/3
f 45/56/5 40/72/5 38/57/5
f 43/58/1 46/47/1 45/56/1
f 41/59/1 47/53/1 46/47/1
f 44/48/1 45/56/1 48/51/1
f 42/60/1 48/51/1 47/53/1
f 44/48/2 53/50/2 54/61/2
f 41/59/4 55/62/4 56/49/4
f 43/58/5 54/61/5 55/62/5
f 68/63/5 72/70/5 69/64/5
f 69/64/1 72/70/1 71/66/1
f 65/65/4 69/64/4 70/67/4
f 67/69/2 71/66/2 72/70/2
f 66/68/3 70/67/3 71/66/3
usemtl Material.005
f 52/73/5 61/74/5 49/75/5
f 58/76/1 53/50/1 57/77/1
f 59/78/1 54/61/1 58/76/1
f 57/77/1 56/49/1 60/79/1
f 60/79/1 55/62/1 59/78/1
f 49/75/1 58/76/1 57/77/1
f 51/80/1 58/76/1 50/81/1
f 52/73/1 57/77/1 60/79/1
f 51/80/1 60/79/1 59/78/1
f 49/75/4 62/82/4 50/81/4
f 51/80/2 64/83/2 52/73/2
f 50/81/3 63/84/3 51/80/3
f 62/82/12 67/69/12 63/84/12
f 63/84/13 68/63/13 64/83/13
f 61/74/14 66/68/14 62/82/14
f 64/83/15 65/65/15 61/74/15
f 52/73/5 64/83/5 61/74/5
f 58/76/1 54/61/1 53/50/1
f 59/78/1 55/62/1 54/61/1
f 57/77/1 53/50/1 56/49/1
f 60/79/1 56/49/1 55/62/1
f 49/75/1 50/81/1 58/76/1
f 51/80/1 59/78/1 58/76/1
f 52/73/1 49/75/1 57/77/1
f 51/80/1 52/73/1 60/79/1
f 49/75/4 61/74/4 62/82/4
f 51/80/2 63/84/2 64/83/2
f 50/81/3 62/82/3 63/84/3
f 62/82/12 66/68/12 67/69/12
f 63/84/16 67/69/16 68/63/16
f 61/74/14 65/65/14 66/68/14
f 64/83/15 68/63/15 65/65/15
