# Blender v2.91.0 OBJ File: 'RestaurantGameModels.blend'
# www.blender.org
mtllib wallObject.mtl
o Cube.001_Cube
v 0.063193 0.510000 0.100000
v 0.063193 0.810000 0.100000
v 0.063193 0.510000 -0.100000
v 0.063193 0.810000 -0.100000
v 0.083193 0.521078 0.092615
v 0.083193 0.798923 0.092615
v 0.083193 0.521078 -0.092615
v 0.083193 0.798923 -0.092615
v 0.083193 0.810000 -0.100000
v 0.083193 0.510000 -0.100000
v 0.083193 0.510000 0.100000
v 0.083193 0.810000 0.100000
v 0.074147 0.798351 -0.092234
v 0.074147 0.521649 -0.092234
v 0.074147 0.521649 0.092234
v 0.074147 0.798351 0.092234
v 0.074147 0.798923 -0.092615
v 0.074147 0.521078 -0.092615
v 0.074147 0.521078 0.092615
v 0.074147 0.798923 0.092615
vt 0.625000 0.000000
vt 0.375000 0.250000
vt 0.375000 0.000000
vt 0.625000 0.250000
vt 0.375000 0.500000
vt 0.384231 0.740769
vt 0.615769 0.740769
vt 0.615769 0.740769
vt 0.625000 0.750000
vt 0.375000 1.000000
vt 0.375000 0.750000
vt 0.125000 0.750000
vt 0.125000 0.500000
vt 0.875000 0.500000
vt 0.625000 0.500000
vt 0.384231 0.509231
vt 0.615769 0.509231
vt 0.384231 0.740769
vt 0.615769 0.509231
vt 0.384231 0.509231
vt 0.615293 0.509707
vt 0.384707 0.740293
vt 0.384707 0.509707
vt 0.615293 0.740293
vt 0.625000 1.000000
vt 0.875000 0.750000
vn -1.0000 0.0000 0.0000
vn 0.0000 0.0000 -1.0000
vn 0.0000 0.0000 1.0000
vn 0.0000 -1.0000 0.0000
vn 0.0000 1.0000 0.0000
vn 1.0000 0.0000 0.0000
usemtl Material.001
s off
f 2/1/1 3/2/1 1/3/1
f 4/4/2 10/5/2 3/2/2
f 5/6/2 20/7/2 6/8/2
f 12/9/3 1/10/3 11/11/3
f 10/5/4 1/12/4 3/13/4
f 4/14/5 12/9/5 9/15/5
f 7/16/6 9/15/6 8/17/6
f 5/6/6 10/5/6 7/16/6
f 8/17/6 12/9/6 6/8/6
f 6/8/6 11/11/6 5/6/6
f 7/16/5 19/18/5 5/6/5
f 6/8/4 17/19/4 8/17/4
f 8/17/3 18/20/3 7/16/3
f 13/21/6 18/20/6 17/19/6
f 15/22/6 18/20/6 14/23/6
f 13/21/6 20/7/6 16/24/6
f 16/24/6 19/18/6 15/22/6
f 2/1/1 4/4/1 3/2/1
f 4/4/2 9/15/2 10/5/2
f 5/6/2 19/18/2 20/7/2
f 12/9/3 2/25/3 1/10/3
f 10/5/4 11/11/4 1/12/4
f 4/14/5 2/26/5 12/9/5
f 7/16/6 10/5/6 9/15/6
f 5/6/6 11/11/6 10/5/6
f 8/17/6 9/15/6 12/9/6
f 6/8/6 12/9/6 11/11/6
f 7/16/5 18/20/5 19/18/5
f 6/8/4 20/7/4 17/19/4
f 8/17/3 17/19/3 18/20/3
f 13/21/6 14/23/6 18/20/6
f 15/22/6 19/18/6 18/20/6
f 13/21/6 17/19/6 20/7/6
f 16/24/6 20/7/6 19/18/6
usemtl Material.002
f 13/21/6 15/22/6 14/23/6
f 13/21/6 16/24/6 15/22/6
