# Blender v2.91.0 OBJ File: 'RestaurantGameModels.blend'
# www.blender.org
mtllib window.mtl
o Cube.003_Cube.004
v 0.054314 0.447720 0.222069
v 0.054314 0.883708 0.222069
v 0.054314 0.447720 -0.222069
v 0.054314 0.883708 -0.222069
v 0.098082 0.650689 0.205669
v 0.098082 0.680740 0.205669
v 0.098223 0.651771 -0.205669
v 0.098223 0.679657 -0.205669
v 0.098728 0.883708 -0.222069
v 0.098728 0.447720 -0.222069
v 0.098728 0.447720 0.222069
v 0.098728 0.883708 0.222069
v 0.078640 0.866779 -0.204824
v 0.078640 0.464649 -0.204824
v 0.078640 0.464649 0.204824
v 0.078640 0.866779 0.204824
v 0.079145 0.679657 -0.205669
v 0.079145 0.651771 -0.205669
v 0.079286 0.650689 0.205669
v 0.079286 0.680740 0.205669
v 0.098444 0.867609 0.020640
v 0.098333 0.463819 0.020089
v 0.078924 0.867609 0.020640
v 0.079035 0.463819 0.020089
v 0.098444 0.867609 -0.020640
v 0.098333 0.463819 -0.020089
v 0.078924 0.867609 -0.020640
v 0.079035 0.463819 -0.020089
v 0.098728 0.867609 -0.205669
v 0.098728 0.867609 0.205669
v 0.078640 0.867609 -0.205669
v 0.078640 0.867609 0.205669
v 0.098728 0.463819 0.205669
v 0.098728 0.463819 -0.205669
v 0.078640 0.463819 0.205669
v 0.078640 0.463819 -0.205669
v -0.054314 0.447720 -0.222069
v -0.054314 0.883708 -0.222069
v -0.054314 0.447720 0.222069
v -0.054314 0.883708 0.222069
v -0.098082 0.650689 -0.205669
v -0.098082 0.680740 -0.205669
v -0.098223 0.651771 0.205669
v -0.098223 0.679657 0.205669
v -0.098728 0.883708 0.222069
v -0.098728 0.447720 0.222069
v -0.098728 0.447720 -0.222069
v -0.098728 0.883708 -0.222069
v -0.078640 0.866779 0.204823
v -0.078640 0.464649 0.204823
v -0.078640 0.464649 -0.204823
v -0.078640 0.866779 -0.204823
v -0.079145 0.679657 0.205669
v -0.079145 0.651771 0.205669
v -0.079286 0.650689 -0.205669
v -0.079286 0.680740 -0.205669
v -0.098444 0.867609 -0.020640
v -0.098333 0.463819 -0.020089
v -0.078924 0.867609 -0.020640
v -0.079035 0.463819 -0.020089
v -0.098444 0.867609 0.020640
v -0.098333 0.463819 0.020089
v -0.078924 0.867609 0.020640
v -0.079035 0.463819 0.020089
v -0.098728 0.867609 0.205669
v -0.098728 0.867609 -0.205669
v -0.078640 0.867609 0.205669
v -0.078640 0.867609 -0.205669
v -0.098728 0.463819 -0.205669
v -0.098728 0.463819 0.205669
v -0.078640 0.463819 -0.205669
v -0.078640 0.463819 0.205669
vt 0.625000 0.000000
vt 0.375000 0.250000
vt 0.375000 0.000000
vt 0.625000 0.250000
vt 0.375000 0.500000
vt 0.387863 0.740769
vt 0.612136 0.740769
vt 0.612136 0.740769
vt 0.625000 0.750000
vt 0.375000 1.000000
vt 0.375000 0.750000
vt 0.125000 0.750000
vt 0.125000 0.500000
vt 0.875000 0.500000
vt 0.625000 0.500000
vt 0.384231 0.509231
vt 0.615769 0.509231
vt 0.384231 0.740769
vt 0.615769 0.740769
vt 0.384231 0.511452
vt 0.384231 0.738548
vt 0.384231 0.738548
vt 0.615769 0.739172
vt 0.615769 0.510828
vt 0.615769 0.510828
vt 0.612930 0.509231
vt 0.387070 0.509231
vt 0.387070 0.509231
vt 0.384707 0.509707
vt 0.615769 0.509231
vt 0.615293 0.509707
vt 0.384707 0.740293
vt 0.384231 0.509231
vt 0.615769 0.740769
vt 0.615293 0.740293
vt 0.384231 0.740769
vt 0.387863 0.740769
vt 0.612930 0.509231
vt 0.000000 0.000000
vt 0.000000 0.000000
vt 0.000000 0.000000
vt 0.615769 0.739172
vt 0.384231 0.511452
vt 0.000000 0.000000
vt 0.000000 0.000000
vt 0.000000 0.000000
vt 0.625000 0.000000
vt 0.000000 0.000000
vt 0.000000 0.000000
vt 0.000000 0.000000
vt 0.000000 0.000000
vt 0.000000 0.000000
vt 0.000000 0.000000
vt 0.000000 0.000000
vt 0.625000 1.000000
vt 0.875000 0.750000
vt 0.000000 0.000000
vt 0.000000 0.000000
vt 0.375000 0.000000
vt 0.000000 0.000000
vt 0.375000 0.250000
vt 0.625000 0.250000
vt 0.375000 0.500000
vt 0.387863 0.740769
vt 0.612136 0.740769
vt 0.612136 0.740769
vt 0.625000 0.750000
vt 0.375000 1.000000
vt 0.375000 0.750000
vt 0.125000 0.750000
vt 0.125000 0.500000
vt 0.625000 0.500000
vt 0.875000 0.750000
vt 0.384231 0.509231
vt 0.615769 0.509231
vt 0.384231 0.740769
vt 0.615769 0.740769
vt 0.384231 0.511452
vt 0.384231 0.738548
vt 0.384231 0.738548
vt 0.615769 0.739172
vt 0.615769 0.510828
vt 0.615769 0.510828
vt 0.612930 0.509231
vt 0.387070 0.509231
vt 0.387070 0.509231
vt 0.384707 0.509707
vt 0.615769 0.509231
vt 0.615293 0.509707
vt 0.384707 0.740293
vt 0.384231 0.509231
vt 0.615769 0.740769
vt 0.615293 0.740293
vt 0.384231 0.740769
vt 0.387863 0.740769
vt 0.612930 0.509231
vt 0.000000 0.000000
vt 0.000000 0.000000
vt 0.000000 0.000000
vt 0.615769 0.739172
vt 0.384231 0.511452
vt 0.000000 0.000000
vt 0.000000 0.000000
vt 0.000000 0.000000
vt 0.625000 1.000000
vt 0.875000 0.500000
vt 0.000000 0.000000
vt 0.000000 0.000000
vn -1.0000 0.0000 0.0000
vn 0.0000 0.0000 -1.0000
vn 0.0000 0.0000 1.0000
vn 0.0000 -1.0000 0.0000
vn 0.0000 1.0000 0.0000
vn 1.0000 0.0000 0.0000
vn 0.0000 1.0000 -0.0026
vn 0.0000 -1.0000 -0.0026
vn 1.0000 0.0000 0.0003
vn 0.0000 -0.0014 1.0000
vn 0.0000 -0.0014 -1.0000
vn 1.0000 -0.0003 0.0000
vn -0.0001 0.0000 1.0000
vn 0.0001 0.0000 -1.0000
vn 0.0000 1.0000 0.0026
vn 0.0000 -1.0000 0.0026
vn -1.0000 0.0000 -0.0003
vn -1.0000 -0.0003 0.0000
vn 0.0001 0.0000 1.0000
vn -0.0001 0.0000 -1.0000
usemtl Material.008
s off
f 2/1/1 3/2/1 1/3/1
f 4/4/2 10/5/2 3/2/2
f 5/6/2 20/7/2 6/8/2
f 12/9/3 1/10/3 11/11/3
f 10/5/4 1/12/4 3/13/4
f 4/14/5 12/9/5 9/15/5
f 34/16/6 9/15/6 29/17/6
f 33/18/6 10/5/6 34/16/6
f 29/17/6 12/9/6 30/19/6
f 30/19/6 11/11/6 33/18/6
f 26/20/5 24/21/5 22/22/5
f 21/23/4 27/24/4 25/25/4
f 8/26/3 18/27/3 7/28/3
f 14/29/6 31/30/6 13/31/6
f 15/32/6 36/33/6 14/29/6
f 13/31/6 32/34/6 16/35/6
f 16/35/6 35/36/6 15/32/6
f 5/6/2 30/19/2 33/18/2
f 19/37/2 32/34/2 20/7/2
f 5/6/2 35/36/2 19/37/2
f 20/7/2 30/19/2 6/8/2
f 7/28/3 29/17/3 8/26/3
f 18/27/3 31/30/3 36/33/3
f 18/27/3 34/16/3 7/28/3
f 17/38/3 29/17/3 31/30/3
f 17/38/7 6/8/7 8/26/7
f 7/28/8 19/37/8 18/27/8
f 6/39/9 7/40/9 8/41/9
f 25/25/4 30/19/4 21/23/4
f 23/42/4 31/30/4 27/24/4
f 21/23/4 32/34/4 23/42/4
f 27/24/4 29/17/4 25/25/4
f 26/20/5 33/18/5 34/16/5
f 24/21/5 36/33/5 35/36/5
f 24/21/5 33/18/5 22/22/5
f 26/20/5 36/33/5 28/43/5
f 23/42/10 22/22/10 21/23/10
f 25/25/11 28/43/11 27/24/11
f 25/44/12 22/45/12 26/46/12
f 3/2/2 38/47/2 4/4/2
f 40/48/5 4/49/5 38/50/5
f 1/51/3 40/48/3 39/52/3
f 3/53/4 39/52/4 37/54/4
f 2/1/1 4/4/1 3/2/1
f 4/4/2 9/15/2 10/5/2
f 5/6/2 19/37/2 20/7/2
f 12/9/3 2/55/3 1/10/3
f 10/5/4 11/11/4 1/12/4
f 4/14/5 2/56/5 12/9/5
f 34/16/6 10/5/6 9/15/6
f 33/18/6 11/11/6 10/5/6
f 29/17/6 9/15/6 12/9/6
f 30/19/6 12/9/6 11/11/6
f 26/20/5 28/43/5 24/21/5
f 21/23/4 23/42/4 27/24/4
f 8/26/3 17/38/3 18/27/3
f 14/29/6 36/33/6 31/30/6
f 15/32/6 35/36/6 36/33/6
f 13/31/6 31/30/6 32/34/6
f 16/35/6 32/34/6 35/36/6
f 5/6/2 6/8/2 30/19/2
f 19/37/2 35/36/2 32/34/2
f 5/6/2 33/18/2 35/36/2
f 20/7/2 32/34/2 30/19/2
f 7/28/3 34/16/3 29/17/3
f 18/27/3 17/38/3 31/30/3
f 18/27/3 36/33/3 34/16/3
f 17/38/3 8/26/3 29/17/3
f 17/38/7 20/7/7 6/8/7
f 7/28/8 5/6/8 19/37/8
f 6/39/9 5/57/9 7/40/9
f 25/25/4 29/17/4 30/19/4
f 23/42/4 32/34/4 31/30/4
f 21/23/4 30/19/4 32/34/4
f 27/24/4 31/30/4 29/17/4
f 26/20/5 22/22/5 33/18/5
f 24/21/5 28/43/5 36/33/5
f 24/21/5 35/36/5 33/18/5
f 26/20/5 34/16/5 36/33/5
f 23/42/10 24/21/10 22/22/10
f 25/25/11 26/20/11 28/43/11
f 25/44/12 21/58/12 22/45/12
f 3/2/2 37/59/2 38/47/2
f 40/48/5 2/60/5 4/49/5
f 1/51/3 2/60/3 40/48/3
f 3/53/4 1/51/4 39/52/4
usemtl Material.007
f 13/31/6 15/32/6 14/29/6
f 13/31/6 16/35/6 15/32/6
usemtl Material.010
f 38/47/6 39/61/6 37/59/6
f 40/62/3 46/63/3 39/61/3
f 41/64/3 56/65/3 42/66/3
f 48/67/2 37/68/2 47/69/2
f 46/63/4 37/70/4 39/71/4
f 45/72/5 38/73/5 48/67/5
f 70/74/1 45/72/1 65/75/1
f 69/76/1 46/63/1 70/74/1
f 66/77/1 45/72/1 48/67/1
f 66/77/1 47/69/1 69/76/1
f 62/78/5 60/79/5 58/80/5
f 57/81/4 63/82/4 61/83/4
f 44/84/2 54/85/2 43/86/2
f 50/87/1 67/88/1 49/89/1
f 51/90/1 72/91/1 50/87/1
f 49/89/1 68/92/1 52/93/1
f 52/93/1 71/94/1 51/90/1
f 41/64/13 66/77/13 69/76/13
f 55/95/3 68/92/3 56/65/3
f 41/64/3 71/94/3 55/95/3
f 56/65/3 66/77/3 42/66/3
f 43/86/2 65/75/2 44/84/2
f 54/85/14 67/88/14 72/91/14
f 54/85/2 70/74/2 43/86/2
f 44/84/2 67/88/2 53/96/2
f 44/84/15 56/65/15 42/66/15
f 43/86/16 55/95/16 54/85/16
f 42/97/17 43/98/17 44/99/17
f 61/83/4 66/77/4 57/81/4
f 59/100/4 67/88/4 63/82/4
f 57/81/4 68/92/4 59/100/4
f 63/82/4 65/75/4 61/83/4
f 62/78/5 69/76/5 70/74/5
f 60/79/5 72/91/5 71/94/5
f 58/80/5 71/94/5 69/76/5
f 64/101/5 70/74/5 72/91/5
f 57/81/11 60/79/11 58/80/11
f 61/83/10 64/101/10 63/82/10
f 61/102/18 58/103/18 62/104/18
f 38/47/6 40/62/6 39/61/6
f 40/62/3 45/72/3 46/63/3
f 41/64/3 55/95/3 56/65/3
f 48/67/2 38/105/2 37/68/2
f 46/63/4 47/69/4 37/70/4
f 45/72/5 40/106/5 38/73/5
f 70/74/1 46/63/1 45/72/1
f 69/76/1 47/69/1 46/63/1
f 66/77/1 65/75/1 45/72/1
f 66/77/1 48/67/1 47/69/1
f 62/78/5 64/101/5 60/79/5
f 57/81/4 59/100/4 63/82/4
f 44/84/2 53/96/2 54/85/2
f 50/87/1 72/91/1 67/88/1
f 51/90/1 71/94/1 72/91/1
f 49/89/1 67/88/1 68/92/1
f 52/93/1 68/92/1 71/94/1
f 41/64/3 42/66/3 66/77/3
f 55/95/19 71/94/19 68/92/19
f 41/64/3 69/76/3 71/94/3
f 56/65/3 68/92/3 66/77/3
f 43/86/20 70/74/20 65/75/20
f 54/85/2 53/96/2 67/88/2
f 54/85/2 72/91/2 70/74/2
f 44/84/2 65/75/2 67/88/2
f 44/84/15 53/96/15 56/65/15
f 43/86/16 41/64/16 55/95/16
f 42/97/17 41/107/17 43/98/17
f 61/83/4 65/75/4 66/77/4
f 59/100/4 68/92/4 67/88/4
f 57/81/4 66/77/4 68/92/4
f 63/82/4 67/88/4 65/75/4
f 62/78/5 58/80/5 69/76/5
f 60/79/5 64/101/5 72/91/5
f 58/80/5 60/79/5 71/94/5
f 64/101/5 62/78/5 70/74/5
f 57/81/11 59/100/11 60/79/11
f 61/83/10 62/78/10 64/101/10
f 61/102/18 57/108/18 58/103/18
usemtl Material.009
f 49/89/1 51/90/1 50/87/1
f 49/89/1 52/93/1 51/90/1
